<?xml version="1.0" encoding="UTF-8" standalone="no"?>
<!DOCTYPE svg PUBLIC "-//W3C//DTD SVG 1.1//EN" "http://www.w3.org/Graphics/SVG/1.1/DTD/svg11.dtd">
<!-- Generated by Microsoft Visio, SVG Export figure-5.svg Page-1 -->
<svg xmlns="http://www.w3.org/2000/svg" xmlns:xlink="http://www.w3.org/1999/xlink" xmlns:ev="http://www.w3.org/2001/xml-events"
		xmlns:v="http://schemas.microsoft.com/visio/2003/SVGExtensions/" width="2.81742in" height="2.64289in"
		viewBox="0 0 202.854 190.288" xml:space="preserve" color-interpolation-filters="sRGB" class="st4">
	<v:documentProperties v:langID="1033" v:viewMarkup="false"/>

	<style type="text/css">
	<![CDATA[
		.st1 {fill:#ffffff;stroke:#000000;stroke-linecap:round;stroke-linejoin:round;stroke-width:1}
		.st2 {fill:#000000;font-family:Cambria Math;font-size:0.833336em}
		.st3 {stroke:#000000;stroke-linecap:round;stroke-linejoin:round;stroke-width:1}
		.st4 {fill:none;fill-rule:evenodd;font-size:12px;overflow:visible;stroke-linecap:square;stroke-miterlimit:3}
	]]>
	</style>

	<g v:mID="0" v:index="1" v:groupContext="foregroundPage">
		<title>Page-1</title>
		<v:pageProperties v:drawingScale="0.0393701" v:pageScale="0.0393701" v:drawingUnits="24" v:shadowOffsetX="8.50394"
				v:shadowOffsetY="-8.50394"/>
		<g id="group271-1" transform="translate(0.499948,-0.513659)" v:mID="271" v:groupContext="group">
			<title>Sheet.271</title>
			<g id="group217-2" v:mID="217" v:groupContext="group">
				<title>Sheet.217</title>
				<g id="shape218-3" v:mID="218" v:groupContext="shape" transform="translate(85.0394,-2.84217E-014)">
					<title>Rounded Rectangle</title>
					<desc>1</desc>
					<v:userDefs>
						<v:ud v:nameU="CTypeTopLeftSnip" v:prompt="" v:val="VT0(0):5"/>
						<v:ud v:nameU="CTypeTopRightSnip" v:prompt="" v:val="VT0(0):5"/>
						<v:ud v:nameU="CTypeBotLeftSnip" v:prompt="" v:val="VT0(0):5"/>
						<v:ud v:nameU="CTypeBotRightSnip" v:prompt="" v:val="VT0(0):5"/>
						<v:ud v:nameU="CornerLockHoriz" v:prompt="" v:val="VT0(1):5"/>
						<v:ud v:nameU="CornerLockVert" v:prompt="" v:val="VT0(1):5"/>
						<v:ud v:nameU="CornerLockDiag" v:prompt="" v:val="VT0(0):5"/>
						<v:ud v:nameU="TopLeftOffset" v:prompt="" v:val="VT0(0.15748031496063):24"/>
						<v:ud v:nameU="TopRightOffset" v:prompt="" v:val="VT0(0.15748031496063):24"/>
						<v:ud v:nameU="BotLeftOffset" v:prompt="" v:val="VT0(0.15748031496063):24"/>
						<v:ud v:nameU="BotRightOffset" v:prompt="" v:val="VT0(0.15748031496063):24"/>
						<v:ud v:nameU="visVersion" v:prompt="" v:val="VT0(15):26"/>
						<v:ud v:nameU="TopLeftOffset" v:prompt="" v:val="VT0(0.044132588265176):1"/>
						<v:ud v:nameU="TopRightOffset" v:prompt="" v:val="VT0(0.044132588265176):1"/>
						<v:ud v:nameU="BotLeftOffset" v:prompt="" v:val="VT0(0.044132588265176):1"/>
						<v:ud v:nameU="BotRightOffset" v:prompt="" v:val="VT0(0.044132588265176):1"/>
					</v:userDefs>
					<v:textBlock v:margins="rect(4,4,4,4)" v:tabSpace="42.5197"/>
					<v:textRect cx="15.8877" cy="184.802" width="31.78" height="10.9728"/>
					<path d="M3.18 190.29 L28.6 190.29 A3.17749 3.17749 -180 0 0 31.78 187.11 L31.78 182.49 A3.17749 3.17749 -180
								 0 0 28.6 179.32 L3.18 179.32 A3.17749 3.17749 -180 0 0 0 182.49 L0 187.11 A3.17749 3.17749 -180
								 0 0 3.18 190.29 Z" class="st1"/>
					<text x="13.12" y="187.8" class="st2" v:langID="2052"><v:paragraph v:horizAlign="1"/><v:tabList/>1</text>				</g>
				<g id="shape219-6" v:mID="219" v:groupContext="shape" transform="translate(113.386,-21.9456)">
					<title>Rounded Rectangle.141</title>
					<desc>3</desc>
					<v:userDefs>
						<v:ud v:nameU="CTypeTopLeftSnip" v:prompt="" v:val="VT0(0):5"/>
						<v:ud v:nameU="CTypeTopRightSnip" v:prompt="" v:val="VT0(0):5"/>
						<v:ud v:nameU="CTypeBotLeftSnip" v:prompt="" v:val="VT0(0):5"/>
						<v:ud v:nameU="CTypeBotRightSnip" v:prompt="" v:val="VT0(0):5"/>
						<v:ud v:nameU="CornerLockHoriz" v:prompt="" v:val="VT0(1):5"/>
						<v:ud v:nameU="CornerLockVert" v:prompt="" v:val="VT0(1):5"/>
						<v:ud v:nameU="CornerLockDiag" v:prompt="" v:val="VT0(0):5"/>
						<v:ud v:nameU="TopLeftOffset" v:prompt="" v:val="VT0(0.15748031496063):24"/>
						<v:ud v:nameU="TopRightOffset" v:prompt="" v:val="VT0(0.15748031496063):24"/>
						<v:ud v:nameU="BotLeftOffset" v:prompt="" v:val="VT0(0.15748031496063):24"/>
						<v:ud v:nameU="BotRightOffset" v:prompt="" v:val="VT0(0.15748031496063):24"/>
						<v:ud v:nameU="visVersion" v:prompt="" v:val="VT0(15):26"/>
						<v:ud v:nameU="TopLeftOffset" v:prompt="" v:val="VT0(0.044132588265176):1"/>
						<v:ud v:nameU="TopRightOffset" v:prompt="" v:val="VT0(0.044132588265176):1"/>
						<v:ud v:nameU="BotLeftOffset" v:prompt="" v:val="VT0(0.044132588265176):1"/>
						<v:ud v:nameU="BotRightOffset" v:prompt="" v:val="VT0(0.044132588265176):1"/>
					</v:userDefs>
					<v:textBlock v:margins="rect(4,4,4,4)" v:tabSpace="42.5197"/>
					<v:textRect cx="15.8877" cy="184.802" width="31.78" height="10.9728"/>
					<path d="M3.18 190.29 L28.6 190.29 A3.17749 3.17749 -180 0 0 31.78 187.11 L31.78 182.49 A3.17749 3.17749 -180
								 0 0 28.6 179.32 L3.18 179.32 A3.17749 3.17749 -180 0 0 0 182.49 L0 187.11 A3.17749 3.17749 -180
								 0 0 3.18 190.29 Z" class="st1"/>
					<text x="13.12" y="187.8" class="st2" v:langID="2052"><v:paragraph v:horizAlign="1"/><v:tabList/>3</text>				</g>
				<g id="shape220-9" v:mID="220" v:groupContext="shape" transform="translate(113.386,-44.799)">
					<title>Rounded Rectangle.142</title>
					<desc>5</desc>
					<v:userDefs>
						<v:ud v:nameU="CTypeTopLeftSnip" v:prompt="" v:val="VT0(0):5"/>
						<v:ud v:nameU="CTypeTopRightSnip" v:prompt="" v:val="VT0(0):5"/>
						<v:ud v:nameU="CTypeBotLeftSnip" v:prompt="" v:val="VT0(0):5"/>
						<v:ud v:nameU="CTypeBotRightSnip" v:prompt="" v:val="VT0(0):5"/>
						<v:ud v:nameU="CornerLockHoriz" v:prompt="" v:val="VT0(1):5"/>
						<v:ud v:nameU="CornerLockVert" v:prompt="" v:val="VT0(1):5"/>
						<v:ud v:nameU="CornerLockDiag" v:prompt="" v:val="VT0(0):5"/>
						<v:ud v:nameU="TopLeftOffset" v:prompt="" v:val="VT0(0.15748031496063):24"/>
						<v:ud v:nameU="TopRightOffset" v:prompt="" v:val="VT0(0.15748031496063):24"/>
						<v:ud v:nameU="BotLeftOffset" v:prompt="" v:val="VT0(0.15748031496063):24"/>
						<v:ud v:nameU="BotRightOffset" v:prompt="" v:val="VT0(0.15748031496063):24"/>
						<v:ud v:nameU="visVersion" v:prompt="" v:val="VT0(15):26"/>
						<v:ud v:nameU="TopLeftOffset" v:prompt="" v:val="VT0(0.044132588265176):1"/>
						<v:ud v:nameU="TopRightOffset" v:prompt="" v:val="VT0(0.044132588265176):1"/>
						<v:ud v:nameU="BotLeftOffset" v:prompt="" v:val="VT0(0.044132588265176):1"/>
						<v:ud v:nameU="BotRightOffset" v:prompt="" v:val="VT0(0.044132588265176):1"/>
					</v:userDefs>
					<v:textBlock v:margins="rect(4,4,4,4)" v:tabSpace="42.5197"/>
					<v:textRect cx="15.8877" cy="184.802" width="31.78" height="10.9728"/>
					<path d="M3.18 190.29 L28.6 190.29 A3.17749 3.17749 -180 0 0 31.78 187.11 L31.78 182.49 A3.17749 3.17749 -180
								 0 0 28.6 179.32 L3.18 179.32 A3.17749 3.17749 -180 0 0 0 182.49 L0 187.11 A3.17749 3.17749 -180
								 0 0 3.18 190.29 Z" class="st1"/>
					<text x="13.12" y="187.8" class="st2" v:langID="2052"><v:paragraph v:horizAlign="1"/><v:tabList/>5</text>				</g>
				<g id="shape221-12" v:mID="221" v:groupContext="shape" transform="translate(56.6929,-21.9456)">
					<title>Rounded Rectangle.143</title>
					<desc>2</desc>
					<v:userDefs>
						<v:ud v:nameU="CTypeTopLeftSnip" v:prompt="" v:val="VT0(0):5"/>
						<v:ud v:nameU="CTypeTopRightSnip" v:prompt="" v:val="VT0(0):5"/>
						<v:ud v:nameU="CTypeBotLeftSnip" v:prompt="" v:val="VT0(0):5"/>
						<v:ud v:nameU="CTypeBotRightSnip" v:prompt="" v:val="VT0(0):5"/>
						<v:ud v:nameU="CornerLockHoriz" v:prompt="" v:val="VT0(1):5"/>
						<v:ud v:nameU="CornerLockVert" v:prompt="" v:val="VT0(1):5"/>
						<v:ud v:nameU="CornerLockDiag" v:prompt="" v:val="VT0(0):5"/>
						<v:ud v:nameU="TopLeftOffset" v:prompt="" v:val="VT0(0.15748031496063):24"/>
						<v:ud v:nameU="TopRightOffset" v:prompt="" v:val="VT0(0.15748031496063):24"/>
						<v:ud v:nameU="BotLeftOffset" v:prompt="" v:val="VT0(0.15748031496063):24"/>
						<v:ud v:nameU="BotRightOffset" v:prompt="" v:val="VT0(0.15748031496063):24"/>
						<v:ud v:nameU="visVersion" v:prompt="" v:val="VT0(15):26"/>
						<v:ud v:nameU="TopLeftOffset" v:prompt="" v:val="VT0(0.044132588265176):1"/>
						<v:ud v:nameU="TopRightOffset" v:prompt="" v:val="VT0(0.044132588265176):1"/>
						<v:ud v:nameU="BotLeftOffset" v:prompt="" v:val="VT0(0.044132588265176):1"/>
						<v:ud v:nameU="BotRightOffset" v:prompt="" v:val="VT0(0.044132588265176):1"/>
					</v:userDefs>
					<v:textBlock v:margins="rect(4,4,4,4)" v:tabSpace="42.5197"/>
					<v:textRect cx="15.8877" cy="184.802" width="31.78" height="10.9728"/>
					<path d="M3.18 190.29 L28.6 190.29 A3.17749 3.17749 -180 0 0 31.78 187.11 L31.78 182.49 A3.17749 3.17749 -180
								 0 0 28.6 179.32 L3.18 179.32 A3.17749 3.17749 -180 0 0 0 182.49 L0 187.11 A3.17749 3.17749 -180
								 0 0 3.18 190.29 Z" class="st1"/>
					<text x="13.12" y="187.8" class="st2" v:langID="2052"><v:paragraph v:horizAlign="1"/><v:tabList/>2</text>				</g>
				<g id="shape222-15" v:mID="222" v:groupContext="shape" transform="translate(56.6929,-44.799)">
					<title>Rounded Rectangle.144</title>
					<desc>4</desc>
					<v:userDefs>
						<v:ud v:nameU="CTypeTopLeftSnip" v:prompt="" v:val="VT0(0):5"/>
						<v:ud v:nameU="CTypeTopRightSnip" v:prompt="" v:val="VT0(0):5"/>
						<v:ud v:nameU="CTypeBotLeftSnip" v:prompt="" v:val="VT0(0):5"/>
						<v:ud v:nameU="CTypeBotRightSnip" v:prompt="" v:val="VT0(0):5"/>
						<v:ud v:nameU="CornerLockHoriz" v:prompt="" v:val="VT0(1):5"/>
						<v:ud v:nameU="CornerLockVert" v:prompt="" v:val="VT0(1):5"/>
						<v:ud v:nameU="CornerLockDiag" v:prompt="" v:val="VT0(0):5"/>
						<v:ud v:nameU="TopLeftOffset" v:prompt="" v:val="VT0(0.15748031496063):24"/>
						<v:ud v:nameU="TopRightOffset" v:prompt="" v:val="VT0(0.15748031496063):24"/>
						<v:ud v:nameU="BotLeftOffset" v:prompt="" v:val="VT0(0.15748031496063):24"/>
						<v:ud v:nameU="BotRightOffset" v:prompt="" v:val="VT0(0.15748031496063):24"/>
						<v:ud v:nameU="visVersion" v:prompt="" v:val="VT0(15):26"/>
						<v:ud v:nameU="TopLeftOffset" v:prompt="" v:val="VT0(0.044132588265176):1"/>
						<v:ud v:nameU="TopRightOffset" v:prompt="" v:val="VT0(0.044132588265176):1"/>
						<v:ud v:nameU="BotLeftOffset" v:prompt="" v:val="VT0(0.044132588265176):1"/>
						<v:ud v:nameU="BotRightOffset" v:prompt="" v:val="VT0(0.044132588265176):1"/>
					</v:userDefs>
					<v:textBlock v:margins="rect(4,4,4,4)" v:tabSpace="42.5197"/>
					<v:textRect cx="15.8877" cy="184.802" width="31.78" height="10.9728"/>
					<path d="M3.18 190.29 L28.6 190.29 A3.17749 3.17749 -180 0 0 31.78 187.11 L31.78 182.49 A3.17749 3.17749 -180
								 0 0 28.6 179.32 L3.18 179.32 A3.17749 3.17749 -180 0 0 0 182.49 L0 187.11 A3.17749 3.17749 -180
								 0 0 3.18 190.29 Z" class="st1"/>
					<text x="13.12" y="187.8" class="st2" v:langID="2052"><v:paragraph v:horizAlign="1"/><v:tabList/>4</text>				</g>
				<g id="shape223-18" v:mID="223" v:groupContext="shape" transform="translate(85.0394,-67.6523)">
					<title>Rounded Rectangle.145</title>
					<desc>6</desc>
					<v:userDefs>
						<v:ud v:nameU="CTypeTopLeftSnip" v:prompt="" v:val="VT0(0):5"/>
						<v:ud v:nameU="CTypeTopRightSnip" v:prompt="" v:val="VT0(0):5"/>
						<v:ud v:nameU="CTypeBotLeftSnip" v:prompt="" v:val="VT0(0):5"/>
						<v:ud v:nameU="CTypeBotRightSnip" v:prompt="" v:val="VT0(0):5"/>
						<v:ud v:nameU="CornerLockHoriz" v:prompt="" v:val="VT0(1):5"/>
						<v:ud v:nameU="CornerLockVert" v:prompt="" v:val="VT0(1):5"/>
						<v:ud v:nameU="CornerLockDiag" v:prompt="" v:val="VT0(0):5"/>
						<v:ud v:nameU="TopLeftOffset" v:prompt="" v:val="VT0(0.15748031496063):24"/>
						<v:ud v:nameU="TopRightOffset" v:prompt="" v:val="VT0(0.15748031496063):24"/>
						<v:ud v:nameU="BotLeftOffset" v:prompt="" v:val="VT0(0.15748031496063):24"/>
						<v:ud v:nameU="BotRightOffset" v:prompt="" v:val="VT0(0.15748031496063):24"/>
						<v:ud v:nameU="visVersion" v:prompt="" v:val="VT0(15):26"/>
						<v:ud v:nameU="TopLeftOffset" v:prompt="" v:val="VT0(0.044132588265176):1"/>
						<v:ud v:nameU="TopRightOffset" v:prompt="" v:val="VT0(0.044132588265176):1"/>
						<v:ud v:nameU="BotLeftOffset" v:prompt="" v:val="VT0(0.044132588265176):1"/>
						<v:ud v:nameU="BotRightOffset" v:prompt="" v:val="VT0(0.044132588265176):1"/>
					</v:userDefs>
					<v:textBlock v:margins="rect(4,4,4,4)" v:tabSpace="42.5197"/>
					<v:textRect cx="15.8877" cy="184.802" width="31.78" height="10.9728"/>
					<path d="M3.18 190.29 L28.6 190.29 A3.17749 3.17749 -180 0 0 31.78 187.11 L31.78 182.49 A3.17749 3.17749 -180
								 0 0 28.6 179.32 L3.18 179.32 A3.17749 3.17749 -180 0 0 0 182.49 L0 187.11 A3.17749 3.17749 -180
								 0 0 3.18 190.29 Z" class="st1"/>
					<text x="13.12" y="187.8" class="st2" v:langID="2052"><v:paragraph v:horizAlign="1"/><v:tabList/>6</text>				</g>
				<g id="shape224-21" v:mID="224" v:groupContext="shape" transform="translate(56.6929,-90.5056)">
					<title>Rounded Rectangle.146</title>
					<desc>10</desc>
					<v:userDefs>
						<v:ud v:nameU="CTypeTopLeftSnip" v:prompt="" v:val="VT0(0):5"/>
						<v:ud v:nameU="CTypeTopRightSnip" v:prompt="" v:val="VT0(0):5"/>
						<v:ud v:nameU="CTypeBotLeftSnip" v:prompt="" v:val="VT0(0):5"/>
						<v:ud v:nameU="CTypeBotRightSnip" v:prompt="" v:val="VT0(0):5"/>
						<v:ud v:nameU="CornerLockHoriz" v:prompt="" v:val="VT0(1):5"/>
						<v:ud v:nameU="CornerLockVert" v:prompt="" v:val="VT0(1):5"/>
						<v:ud v:nameU="CornerLockDiag" v:prompt="" v:val="VT0(0):5"/>
						<v:ud v:nameU="TopLeftOffset" v:prompt="" v:val="VT0(0.15748031496063):24"/>
						<v:ud v:nameU="TopRightOffset" v:prompt="" v:val="VT0(0.15748031496063):24"/>
						<v:ud v:nameU="BotLeftOffset" v:prompt="" v:val="VT0(0.15748031496063):24"/>
						<v:ud v:nameU="BotRightOffset" v:prompt="" v:val="VT0(0.15748031496063):24"/>
						<v:ud v:nameU="visVersion" v:prompt="" v:val="VT0(15):26"/>
						<v:ud v:nameU="TopLeftOffset" v:prompt="" v:val="VT0(0.044132588265176):1"/>
						<v:ud v:nameU="TopRightOffset" v:prompt="" v:val="VT0(0.044132588265176):1"/>
						<v:ud v:nameU="BotLeftOffset" v:prompt="" v:val="VT0(0.044132588265176):1"/>
						<v:ud v:nameU="BotRightOffset" v:prompt="" v:val="VT0(0.044132588265176):1"/>
					</v:userDefs>
					<v:textBlock v:margins="rect(4,4,4,4)" v:tabSpace="42.5197"/>
					<v:textRect cx="15.8877" cy="184.802" width="31.78" height="10.9728"/>
					<path d="M3.18 190.29 L28.6 190.29 A3.17749 3.17749 -180 0 0 31.78 187.11 L31.78 182.49 A3.17749 3.17749 -180
								 0 0 28.6 179.32 L3.18 179.32 A3.17749 3.17749 -180 0 0 0 182.49 L0 187.11 A3.17749 3.17749 -180
								 0 0 3.18 190.29 Z" class="st1"/>
					<text x="10.35" y="187.8" class="st2" v:langID="2052"><v:paragraph v:horizAlign="1"/><v:tabList/>10</text>				</g>
				<g id="shape225-24" v:mID="225" v:groupContext="shape" transform="translate(113.386,-90.5056)">
					<title>Rounded Rectangle.147</title>
					<desc>11</desc>
					<v:userDefs>
						<v:ud v:nameU="CTypeTopLeftSnip" v:prompt="" v:val="VT0(0):5"/>
						<v:ud v:nameU="CTypeTopRightSnip" v:prompt="" v:val="VT0(0):5"/>
						<v:ud v:nameU="CTypeBotLeftSnip" v:prompt="" v:val="VT0(0):5"/>
						<v:ud v:nameU="CTypeBotRightSnip" v:prompt="" v:val="VT0(0):5"/>
						<v:ud v:nameU="CornerLockHoriz" v:prompt="" v:val="VT0(1):5"/>
						<v:ud v:nameU="CornerLockVert" v:prompt="" v:val="VT0(1):5"/>
						<v:ud v:nameU="CornerLockDiag" v:prompt="" v:val="VT0(0):5"/>
						<v:ud v:nameU="TopLeftOffset" v:prompt="" v:val="VT0(0.15748031496063):24"/>
						<v:ud v:nameU="TopRightOffset" v:prompt="" v:val="VT0(0.15748031496063):24"/>
						<v:ud v:nameU="BotLeftOffset" v:prompt="" v:val="VT0(0.15748031496063):24"/>
						<v:ud v:nameU="BotRightOffset" v:prompt="" v:val="VT0(0.15748031496063):24"/>
						<v:ud v:nameU="visVersion" v:prompt="" v:val="VT0(15):26"/>
						<v:ud v:nameU="TopLeftOffset" v:prompt="" v:val="VT0(0.044132588265176):1"/>
						<v:ud v:nameU="TopRightOffset" v:prompt="" v:val="VT0(0.044132588265176):1"/>
						<v:ud v:nameU="BotLeftOffset" v:prompt="" v:val="VT0(0.044132588265176):1"/>
						<v:ud v:nameU="BotRightOffset" v:prompt="" v:val="VT0(0.044132588265176):1"/>
					</v:userDefs>
					<v:textBlock v:margins="rect(4,4,4,4)" v:tabSpace="42.5197"/>
					<v:textRect cx="15.8877" cy="184.802" width="31.78" height="10.9728"/>
					<path d="M3.18 190.29 L28.6 190.29 A3.17749 3.17749 -180 0 0 31.78 187.11 L31.78 182.49 A3.17749 3.17749 -180
								 0 0 28.6 179.32 L3.18 179.32 A3.17749 3.17749 -180 0 0 0 182.49 L0 187.11 A3.17749 3.17749 -180
								 0 0 3.18 190.29 Z" class="st1"/>
					<text x="10.35" y="187.8" class="st2" v:langID="2052"><v:paragraph v:horizAlign="1"/><v:tabList/>11</text>				</g>
				<g id="shape226-27" v:mID="226" v:groupContext="shape" transform="translate(0,-90.5056)">
					<title>Rounded Rectangle.148</title>
					<desc>7</desc>
					<v:userDefs>
						<v:ud v:nameU="CTypeTopLeftSnip" v:prompt="" v:val="VT0(0):5"/>
						<v:ud v:nameU="CTypeTopRightSnip" v:prompt="" v:val="VT0(0):5"/>
						<v:ud v:nameU="CTypeBotLeftSnip" v:prompt="" v:val="VT0(0):5"/>
						<v:ud v:nameU="CTypeBotRightSnip" v:prompt="" v:val="VT0(0):5"/>
						<v:ud v:nameU="CornerLockHoriz" v:prompt="" v:val="VT0(1):5"/>
						<v:ud v:nameU="CornerLockVert" v:prompt="" v:val="VT0(1):5"/>
						<v:ud v:nameU="CornerLockDiag" v:prompt="" v:val="VT0(0):5"/>
						<v:ud v:nameU="TopLeftOffset" v:prompt="" v:val="VT0(0.15748031496063):24"/>
						<v:ud v:nameU="TopRightOffset" v:prompt="" v:val="VT0(0.15748031496063):24"/>
						<v:ud v:nameU="BotLeftOffset" v:prompt="" v:val="VT0(0.15748031496063):24"/>
						<v:ud v:nameU="BotRightOffset" v:prompt="" v:val="VT0(0.15748031496063):24"/>
						<v:ud v:nameU="visVersion" v:prompt="" v:val="VT0(15):26"/>
						<v:ud v:nameU="TopLeftOffset" v:prompt="" v:val="VT0(0.044132588265176):1"/>
						<v:ud v:nameU="TopRightOffset" v:prompt="" v:val="VT0(0.044132588265176):1"/>
						<v:ud v:nameU="BotLeftOffset" v:prompt="" v:val="VT0(0.044132588265176):1"/>
						<v:ud v:nameU="BotRightOffset" v:prompt="" v:val="VT0(0.044132588265176):1"/>
					</v:userDefs>
					<v:textBlock v:margins="rect(4,4,4,4)" v:tabSpace="42.5197"/>
					<v:textRect cx="15.8877" cy="184.802" width="31.78" height="10.9728"/>
					<path d="M3.18 190.29 L28.6 190.29 A3.17749 3.17749 -180 0 0 31.78 187.11 L31.78 182.49 A3.17749 3.17749 -180
								 0 0 28.6 179.32 L3.18 179.32 A3.17749 3.17749 -180 0 0 0 182.49 L0 187.11 A3.17749 3.17749 -180
								 0 0 3.18 190.29 Z" class="st1"/>
					<text x="13.12" y="187.8" class="st2" v:langID="2052"><v:paragraph v:horizAlign="1"/><v:tabList/>7</text>				</g>
				<g id="shape227-30" v:mID="227" v:groupContext="shape" transform="translate(170.079,-90.5056)">
					<title>Rounded Rectangle.149</title>
					<desc>8</desc>
					<v:userDefs>
						<v:ud v:nameU="CTypeTopLeftSnip" v:prompt="" v:val="VT0(0):5"/>
						<v:ud v:nameU="CTypeTopRightSnip" v:prompt="" v:val="VT0(0):5"/>
						<v:ud v:nameU="CTypeBotLeftSnip" v:prompt="" v:val="VT0(0):5"/>
						<v:ud v:nameU="CTypeBotRightSnip" v:prompt="" v:val="VT0(0):5"/>
						<v:ud v:nameU="CornerLockHoriz" v:prompt="" v:val="VT0(1):5"/>
						<v:ud v:nameU="CornerLockVert" v:prompt="" v:val="VT0(1):5"/>
						<v:ud v:nameU="CornerLockDiag" v:prompt="" v:val="VT0(0):5"/>
						<v:ud v:nameU="TopLeftOffset" v:prompt="" v:val="VT0(0.15748031496063):24"/>
						<v:ud v:nameU="TopRightOffset" v:prompt="" v:val="VT0(0.15748031496063):24"/>
						<v:ud v:nameU="BotLeftOffset" v:prompt="" v:val="VT0(0.15748031496063):24"/>
						<v:ud v:nameU="BotRightOffset" v:prompt="" v:val="VT0(0.15748031496063):24"/>
						<v:ud v:nameU="visVersion" v:prompt="" v:val="VT0(15):26"/>
						<v:ud v:nameU="TopLeftOffset" v:prompt="" v:val="VT0(0.044132588265176):1"/>
						<v:ud v:nameU="TopRightOffset" v:prompt="" v:val="VT0(0.044132588265176):1"/>
						<v:ud v:nameU="BotLeftOffset" v:prompt="" v:val="VT0(0.044132588265176):1"/>
						<v:ud v:nameU="BotRightOffset" v:prompt="" v:val="VT0(0.044132588265176):1"/>
					</v:userDefs>
					<v:textBlock v:margins="rect(4,4,4,4)" v:tabSpace="42.5197"/>
					<v:textRect cx="15.8877" cy="184.802" width="31.78" height="10.9728"/>
					<path d="M3.18 190.29 L28.6 190.29 A3.17749 3.17749 -180 0 0 31.78 187.11 L31.78 182.49 A3.17749 3.17749 -180
								 0 0 28.6 179.32 L3.18 179.32 A3.17749 3.17749 -180 0 0 0 182.49 L0 187.11 A3.17749 3.17749 -180
								 0 0 3.18 190.29 Z" class="st1"/>
					<text x="13.12" y="187.8" class="st2" v:langID="2052"><v:paragraph v:horizAlign="1"/><v:tabList/>8</text>				</g>
				<g id="shape228-33" v:mID="228" v:groupContext="shape" transform="translate(85.0394,-112.451)">
					<title>Rounded Rectangle.150</title>
					<desc>9</desc>
					<v:userDefs>
						<v:ud v:nameU="CTypeTopLeftSnip" v:prompt="" v:val="VT0(0):5"/>
						<v:ud v:nameU="CTypeTopRightSnip" v:prompt="" v:val="VT0(0):5"/>
						<v:ud v:nameU="CTypeBotLeftSnip" v:prompt="" v:val="VT0(0):5"/>
						<v:ud v:nameU="CTypeBotRightSnip" v:prompt="" v:val="VT0(0):5"/>
						<v:ud v:nameU="CornerLockHoriz" v:prompt="" v:val="VT0(1):5"/>
						<v:ud v:nameU="CornerLockVert" v:prompt="" v:val="VT0(1):5"/>
						<v:ud v:nameU="CornerLockDiag" v:prompt="" v:val="VT0(0):5"/>
						<v:ud v:nameU="TopLeftOffset" v:prompt="" v:val="VT0(0.15748031496063):24"/>
						<v:ud v:nameU="TopRightOffset" v:prompt="" v:val="VT0(0.15748031496063):24"/>
						<v:ud v:nameU="BotLeftOffset" v:prompt="" v:val="VT0(0.15748031496063):24"/>
						<v:ud v:nameU="BotRightOffset" v:prompt="" v:val="VT0(0.15748031496063):24"/>
						<v:ud v:nameU="visVersion" v:prompt="" v:val="VT0(15):26"/>
						<v:ud v:nameU="TopLeftOffset" v:prompt="" v:val="VT0(0.044132588265176):1"/>
						<v:ud v:nameU="TopRightOffset" v:prompt="" v:val="VT0(0.044132588265176):1"/>
						<v:ud v:nameU="BotLeftOffset" v:prompt="" v:val="VT0(0.044132588265176):1"/>
						<v:ud v:nameU="BotRightOffset" v:prompt="" v:val="VT0(0.044132588265176):1"/>
					</v:userDefs>
					<v:textBlock v:margins="rect(4,4,4,4)" v:tabSpace="42.5197"/>
					<v:textRect cx="15.8877" cy="184.802" width="31.78" height="10.9728"/>
					<path d="M3.18 190.29 L28.6 190.29 A3.17749 3.17749 -180 0 0 31.78 187.11 L31.78 182.49 A3.17749 3.17749 -180
								 0 0 28.6 179.32 L3.18 179.32 A3.17749 3.17749 -180 0 0 0 182.49 L0 187.11 A3.17749 3.17749 -180
								 0 0 3.18 190.29 Z" class="st1"/>
					<text x="13.12" y="187.8" class="st2" v:langID="2052"><v:paragraph v:horizAlign="1"/><v:tabList/>9</text>				</g>
				<g id="shape229-36" v:mID="229" v:groupContext="shape" transform="translate(56.6929,-134.397)">
					<title>Rounded Rectangle.151</title>
					<desc>12</desc>
					<v:userDefs>
						<v:ud v:nameU="CTypeTopLeftSnip" v:prompt="" v:val="VT0(0):5"/>
						<v:ud v:nameU="CTypeTopRightSnip" v:prompt="" v:val="VT0(0):5"/>
						<v:ud v:nameU="CTypeBotLeftSnip" v:prompt="" v:val="VT0(0):5"/>
						<v:ud v:nameU="CTypeBotRightSnip" v:prompt="" v:val="VT0(0):5"/>
						<v:ud v:nameU="CornerLockHoriz" v:prompt="" v:val="VT0(1):5"/>
						<v:ud v:nameU="CornerLockVert" v:prompt="" v:val="VT0(1):5"/>
						<v:ud v:nameU="CornerLockDiag" v:prompt="" v:val="VT0(0):5"/>
						<v:ud v:nameU="TopLeftOffset" v:prompt="" v:val="VT0(0.15748031496063):24"/>
						<v:ud v:nameU="TopRightOffset" v:prompt="" v:val="VT0(0.15748031496063):24"/>
						<v:ud v:nameU="BotLeftOffset" v:prompt="" v:val="VT0(0.15748031496063):24"/>
						<v:ud v:nameU="BotRightOffset" v:prompt="" v:val="VT0(0.15748031496063):24"/>
						<v:ud v:nameU="visVersion" v:prompt="" v:val="VT0(15):26"/>
						<v:ud v:nameU="TopLeftOffset" v:prompt="" v:val="VT0(0.044132588265176):1"/>
						<v:ud v:nameU="TopRightOffset" v:prompt="" v:val="VT0(0.044132588265176):1"/>
						<v:ud v:nameU="BotLeftOffset" v:prompt="" v:val="VT0(0.044132588265176):1"/>
						<v:ud v:nameU="BotRightOffset" v:prompt="" v:val="VT0(0.044132588265176):1"/>
					</v:userDefs>
					<v:textBlock v:margins="rect(4,4,4,4)" v:tabSpace="42.5197"/>
					<v:textRect cx="15.8877" cy="184.802" width="31.78" height="10.9728"/>
					<path d="M3.18 190.29 L28.6 190.29 A3.17749 3.17749 -180 0 0 31.78 187.11 L31.78 182.49 A3.17749 3.17749 -180
								 0 0 28.6 179.32 L3.18 179.32 A3.17749 3.17749 -180 0 0 0 182.49 L0 187.11 A3.17749 3.17749 -180
								 0 0 3.18 190.29 Z" class="st1"/>
					<text x="10.35" y="187.8" class="st2" v:langID="2052"><v:paragraph v:horizAlign="1"/><v:tabList/>12</text>				</g>
				<g id="shape230-39" v:mID="230" v:groupContext="shape" transform="translate(113.386,-134.397)">
					<title>Rounded Rectangle.152</title>
					<desc>13</desc>
					<v:userDefs>
						<v:ud v:nameU="CTypeTopLeftSnip" v:prompt="" v:val="VT0(0):5"/>
						<v:ud v:nameU="CTypeTopRightSnip" v:prompt="" v:val="VT0(0):5"/>
						<v:ud v:nameU="CTypeBotLeftSnip" v:prompt="" v:val="VT0(0):5"/>
						<v:ud v:nameU="CTypeBotRightSnip" v:prompt="" v:val="VT0(0):5"/>
						<v:ud v:nameU="CornerLockHoriz" v:prompt="" v:val="VT0(1):5"/>
						<v:ud v:nameU="CornerLockVert" v:prompt="" v:val="VT0(1):5"/>
						<v:ud v:nameU="CornerLockDiag" v:prompt="" v:val="VT0(0):5"/>
						<v:ud v:nameU="TopLeftOffset" v:prompt="" v:val="VT0(0.15748031496063):24"/>
						<v:ud v:nameU="TopRightOffset" v:prompt="" v:val="VT0(0.15748031496063):24"/>
						<v:ud v:nameU="BotLeftOffset" v:prompt="" v:val="VT0(0.15748031496063):24"/>
						<v:ud v:nameU="BotRightOffset" v:prompt="" v:val="VT0(0.15748031496063):24"/>
						<v:ud v:nameU="visVersion" v:prompt="" v:val="VT0(15):26"/>
						<v:ud v:nameU="TopLeftOffset" v:prompt="" v:val="VT0(0.044132588265176):1"/>
						<v:ud v:nameU="TopRightOffset" v:prompt="" v:val="VT0(0.044132588265176):1"/>
						<v:ud v:nameU="BotLeftOffset" v:prompt="" v:val="VT0(0.044132588265176):1"/>
						<v:ud v:nameU="BotRightOffset" v:prompt="" v:val="VT0(0.044132588265176):1"/>
					</v:userDefs>
					<v:textBlock v:margins="rect(4,4,4,4)" v:tabSpace="42.5197"/>
					<v:textRect cx="15.8877" cy="184.802" width="31.78" height="10.9728"/>
					<path d="M3.18 190.29 L28.6 190.29 A3.17749 3.17749 -180 0 0 31.78 187.11 L31.78 182.49 A3.17749 3.17749 -180
								 0 0 28.6 179.32 L3.18 179.32 A3.17749 3.17749 -180 0 0 0 182.49 L0 187.11 A3.17749 3.17749 -180
								 0 0 3.18 190.29 Z" class="st1"/>
					<text x="10.35" y="187.8" class="st2" v:langID="2052"><v:paragraph v:horizAlign="1"/><v:tabList/>13</text>				</g>
				<g id="shape231-42" v:mID="231" v:groupContext="shape" transform="translate(56.6929,-156.342)">
					<title>Rounded Rectangle.153</title>
					<desc>14</desc>
					<v:userDefs>
						<v:ud v:nameU="CTypeTopLeftSnip" v:prompt="" v:val="VT0(0):5"/>
						<v:ud v:nameU="CTypeTopRightSnip" v:prompt="" v:val="VT0(0):5"/>
						<v:ud v:nameU="CTypeBotLeftSnip" v:prompt="" v:val="VT0(0):5"/>
						<v:ud v:nameU="CTypeBotRightSnip" v:prompt="" v:val="VT0(0):5"/>
						<v:ud v:nameU="CornerLockHoriz" v:prompt="" v:val="VT0(1):5"/>
						<v:ud v:nameU="CornerLockVert" v:prompt="" v:val="VT0(1):5"/>
						<v:ud v:nameU="CornerLockDiag" v:prompt="" v:val="VT0(0):5"/>
						<v:ud v:nameU="TopLeftOffset" v:prompt="" v:val="VT0(0.15748031496063):24"/>
						<v:ud v:nameU="TopRightOffset" v:prompt="" v:val="VT0(0.15748031496063):24"/>
						<v:ud v:nameU="BotLeftOffset" v:prompt="" v:val="VT0(0.15748031496063):24"/>
						<v:ud v:nameU="BotRightOffset" v:prompt="" v:val="VT0(0.15748031496063):24"/>
						<v:ud v:nameU="visVersion" v:prompt="" v:val="VT0(15):26"/>
						<v:ud v:nameU="TopLeftOffset" v:prompt="" v:val="VT0(0.044132588265176):1"/>
						<v:ud v:nameU="TopRightOffset" v:prompt="" v:val="VT0(0.044132588265176):1"/>
						<v:ud v:nameU="BotLeftOffset" v:prompt="" v:val="VT0(0.044132588265176):1"/>
						<v:ud v:nameU="BotRightOffset" v:prompt="" v:val="VT0(0.044132588265176):1"/>
					</v:userDefs>
					<v:textBlock v:margins="rect(4,4,4,4)" v:tabSpace="42.5197"/>
					<v:textRect cx="15.8877" cy="184.802" width="31.78" height="10.9728"/>
					<path d="M3.18 190.29 L28.6 190.29 A3.17749 3.17749 -180 0 0 31.78 187.11 L31.78 182.49 A3.17749 3.17749 -180
								 0 0 28.6 179.32 L3.18 179.32 A3.17749 3.17749 -180 0 0 0 182.49 L0 187.11 A3.17749 3.17749 -180
								 0 0 3.18 190.29 Z" class="st1"/>
					<text x="10.35" y="187.8" class="st2" v:langID="2052"><v:paragraph v:horizAlign="1"/><v:tabList/>14</text>				</g>
				<g id="shape232-45" v:mID="232" v:groupContext="shape" transform="translate(113.386,-156.342)">
					<title>Rounded Rectangle.154</title>
					<desc>15</desc>
					<v:userDefs>
						<v:ud v:nameU="CTypeTopLeftSnip" v:prompt="" v:val="VT0(0):5"/>
						<v:ud v:nameU="CTypeTopRightSnip" v:prompt="" v:val="VT0(0):5"/>
						<v:ud v:nameU="CTypeBotLeftSnip" v:prompt="" v:val="VT0(0):5"/>
						<v:ud v:nameU="CTypeBotRightSnip" v:prompt="" v:val="VT0(0):5"/>
						<v:ud v:nameU="CornerLockHoriz" v:prompt="" v:val="VT0(1):5"/>
						<v:ud v:nameU="CornerLockVert" v:prompt="" v:val="VT0(1):5"/>
						<v:ud v:nameU="CornerLockDiag" v:prompt="" v:val="VT0(0):5"/>
						<v:ud v:nameU="TopLeftOffset" v:prompt="" v:val="VT0(0.15748031496063):24"/>
						<v:ud v:nameU="TopRightOffset" v:prompt="" v:val="VT0(0.15748031496063):24"/>
						<v:ud v:nameU="BotLeftOffset" v:prompt="" v:val="VT0(0.15748031496063):24"/>
						<v:ud v:nameU="BotRightOffset" v:prompt="" v:val="VT0(0.15748031496063):24"/>
						<v:ud v:nameU="visVersion" v:prompt="" v:val="VT0(15):26"/>
						<v:ud v:nameU="TopLeftOffset" v:prompt="" v:val="VT0(0.044132588265176):1"/>
						<v:ud v:nameU="TopRightOffset" v:prompt="" v:val="VT0(0.044132588265176):1"/>
						<v:ud v:nameU="BotLeftOffset" v:prompt="" v:val="VT0(0.044132588265176):1"/>
						<v:ud v:nameU="BotRightOffset" v:prompt="" v:val="VT0(0.044132588265176):1"/>
					</v:userDefs>
					<v:textBlock v:margins="rect(4,4,4,4)" v:tabSpace="42.5197"/>
					<v:textRect cx="15.8877" cy="184.802" width="31.78" height="10.9728"/>
					<path d="M3.18 190.29 L28.6 190.29 A3.17749 3.17749 -180 0 0 31.78 187.11 L31.78 182.49 A3.17749 3.17749 -180
								 0 0 28.6 179.32 L3.18 179.32 A3.17749 3.17749 -180 0 0 0 182.49 L0 187.11 A3.17749 3.17749 -180
								 0 0 3.18 190.29 Z" class="st1"/>
					<text x="10.35" y="187.8" class="st2" v:langID="2052"><v:paragraph v:horizAlign="1"/><v:tabList/>15</text>				</g>
				<g id="shape233-48" v:mID="233" v:groupContext="shape" transform="translate(85.0394,-178.288)">
					<title>Rounded Rectangle.155</title>
					<desc>16</desc>
					<v:userDefs>
						<v:ud v:nameU="CTypeTopLeftSnip" v:prompt="" v:val="VT0(0):5"/>
						<v:ud v:nameU="CTypeTopRightSnip" v:prompt="" v:val="VT0(0):5"/>
						<v:ud v:nameU="CTypeBotLeftSnip" v:prompt="" v:val="VT0(0):5"/>
						<v:ud v:nameU="CTypeBotRightSnip" v:prompt="" v:val="VT0(0):5"/>
						<v:ud v:nameU="CornerLockHoriz" v:prompt="" v:val="VT0(1):5"/>
						<v:ud v:nameU="CornerLockVert" v:prompt="" v:val="VT0(1):5"/>
						<v:ud v:nameU="CornerLockDiag" v:prompt="" v:val="VT0(0):5"/>
						<v:ud v:nameU="TopLeftOffset" v:prompt="" v:val="VT0(0.15748031496063):24"/>
						<v:ud v:nameU="TopRightOffset" v:prompt="" v:val="VT0(0.15748031496063):24"/>
						<v:ud v:nameU="BotLeftOffset" v:prompt="" v:val="VT0(0.15748031496063):24"/>
						<v:ud v:nameU="BotRightOffset" v:prompt="" v:val="VT0(0.15748031496063):24"/>
						<v:ud v:nameU="visVersion" v:prompt="" v:val="VT0(15):26"/>
						<v:ud v:nameU="TopLeftOffset" v:prompt="" v:val="VT0(0.044132588265176):1"/>
						<v:ud v:nameU="TopRightOffset" v:prompt="" v:val="VT0(0.044132588265176):1"/>
						<v:ud v:nameU="BotLeftOffset" v:prompt="" v:val="VT0(0.044132588265176):1"/>
						<v:ud v:nameU="BotRightOffset" v:prompt="" v:val="VT0(0.044132588265176):1"/>
					</v:userDefs>
					<v:textBlock v:margins="rect(4,4,4,4)" v:tabSpace="42.5197"/>
					<v:textRect cx="15.8877" cy="184.802" width="31.78" height="10.9728"/>
					<path d="M3.18 190.29 L28.6 190.29 A3.17749 3.17749 -180 0 0 31.78 187.11 L31.78 182.49 A3.17749 3.17749 -180
								 0 0 28.6 179.32 L3.18 179.32 A3.17749 3.17749 -180 0 0 0 182.49 L0 187.11 A3.17749 3.17749 -180
								 0 0 3.18 190.29 Z" class="st1"/>
					<text x="10.35" y="187.8" class="st2" v:langID="2052"><v:paragraph v:horizAlign="1"/><v:tabList/>16</text>				</g>
			</g>
			<g id="group267-51" transform="translate(15.8877,-10.0287)" v:mID="267" v:groupContext="group">
				<title>Sheet.267</title>
				<g id="shape237-52" v:mID="237" v:groupContext="shape" transform="translate(194.093,160.589) rotate(138.362)">
					<title>Sheet.237</title>
					<path d="M0 186.65 A12.8346 12.8346 -180 0 0 17.92 186.65" class="st3"/>
				</g>
				<g id="shape238-55" v:mID="238" v:groupContext="shape" transform="translate(-10.625,172.493) rotate(-138.362)">
					<title>Sheet.238</title>
					<path d="M-0 186.65 A12.8346 12.8346 -180 0 0 17.92 186.65" class="st3"/>
				</g>
				<g id="shape239-58" v:mID="239" v:groupContext="shape" transform="translate(97.4981,225.379) rotate(180)">
					<title>Sheet.239</title>
					<path d="M0 186.89 A24.5418 24.5418 -180 0 0 24.92 186.89" class="st3"/>
				</g>
				<g id="shape240-61" v:mID="240" v:groupContext="shape" transform="translate(72.5806,247.324) scale(1,-1)">
					<title>Sheet.240</title>
					<path d="M0 186.89 A24.5418 24.5418 -180 0 0 24.92 186.89" class="st3"/>
				</g>
				<g id="shape241-64" v:mID="241" v:groupContext="shape" transform="translate(243.584,43.9744) rotate(90)">
					<title>Sheet.241</title>
					<path d="M-0 186.89 A10.8074 24.5418 -180 0 0 10.97 186.89" class="st3"/>
				</g>
				<g id="shape242-67" v:mID="242" v:groupContext="shape" transform="translate(-73.5049,54.9472) rotate(-90)">
					<title>Sheet.242</title>
					<path d="M-0 186.89 A10.8074 24.5418 -180 0 0 10.97 186.89" class="st3"/>
				</g>
				<g id="shape243-70" v:mID="243" v:groupContext="shape"
						transform="translate(-10.7882,-73.7544) rotate(-41.6379) scale(-1,1)">
					<title>Sheet.243</title>
					<path d="M0 186.89 A17.6456 24.5418 -180 0 0 17.92 186.89" class="st3"/>
				</g>
				<g id="shape244-73" v:mID="244" v:groupContext="shape"
						transform="translate(194.256,-61.8509) rotate(41.6379) scale(-1,1)">
					<title>Sheet.244</title>
					<path d="M0 186.89 A17.6456 24.5418 -180 0 0 17.92 186.89" class="st3"/>
				</g>
				<g id="shape245-76" v:mID="245" v:groupContext="shape" transform="translate(195.628,143.169) rotate(124.064)">
					<title>Sheet.245</title>
					<path d="M0 186.89 A71.7526 24.5418 -180 0 0 72.85 186.89" class="st3"/>
				</g>
				<g id="shape246-79" v:mID="246" v:groupContext="shape" transform="translate(15.2563,203.52) rotate(-124.064)">
					<title>Sheet.246</title>
					<path d="M0 186.89 A71.7526 24.5418 -180 0 0 72.85 186.89" class="st3"/>
				</g>
				<g id="shape247-82" v:mID="247" v:groupContext="shape" transform="translate(243.584,65.92) rotate(90)">
					<title>Sheet.247</title>
					<path d="M-0 186.89 A32.4222 24.5418 -180 0 0 32.92 186.89" class="st3"/>
				</g>
				<g id="shape248-85" v:mID="248" v:groupContext="shape" transform="translate(-73.5049,98.8385) rotate(-90)">
					<title>Sheet.248</title>
					<path d="M-0 186.89 A32.4222 24.5418 -180 0 0 32.92 186.89" class="st3"/>
				</g>
				<g id="shape249-88" v:mID="249" v:groupContext="shape" transform="translate(126.253,260.333) rotate(162.21)">
					<title>Sheet.249</title>
					<path d="M0 186.89 A56.0583 24.5418 -180 0 0 56.92 186.89" class="st3"/>
				</g>
				<g id="shape250-91" v:mID="250" v:groupContext="shape" transform="translate(98.02,277.723) rotate(-162.21)">
					<title>Sheet.250</title>
					<path d="M0 186.89 A56.0583 24.5418 -180 0 0 56.92 186.89" class="st3"/>
				</g>
				<g id="shape251-94" v:mID="251" v:groupContext="shape" transform="translate(71.6499,286.66) scale(1,-1)">
					<title>Sheet.251</title>
					<path d="M0 186.89 A26.3752 24.5418 -180 0 0 26.78 186.89" class="st3"/>
				</g>
				<g id="shape252-97" v:mID="252" v:groupContext="shape" transform="translate(98.4288,-78.0101) scale(-1,1)">
					<title>Sheet.252</title>
					<path d="M0 186.89 A26.3752 24.5418 -180 0 0 26.78 186.89" class="st3"/>
				</g>
				<g id="shape253-100" v:mID="253" v:groupContext="shape" transform="translate(74.741,-68.19) rotate(18.6561)">
					<title>Sheet.253</title>
					<path d="M-0 186.89 A56.3379 24.5418 -180 0 0 57.2 186.89" class="st3"/>
				</g>
				<g id="shape254-103" v:mID="254" v:groupContext="shape" transform="translate(41.1432,-49.8924) rotate(-18.6561)">
					<title>Sheet.254</title>
					<path d="M0 186.89 A56.3379 24.5418 -180 0 0 57.2 186.89" class="st3"/>
				</g>
				<g id="shape255-106" v:mID="255" v:groupContext="shape" transform="translate(156.916,8.29515) rotate(57.0993)">
					<title>Sheet.255</title>
					<path d="M-0 186.89 A73.9896 24.5418 -180 0 0 75.12 186.89" class="st3"/>
				</g>
				<g id="shape256-109" v:mID="256" v:groupContext="shape" transform="translate(-27.6423,71.3687) rotate(-57.0993)">
					<title>Sheet.256</title>
					<path d="M-0 186.89 A73.9896 24.5418 -180 0 0 75.12 186.89" class="st3"/>
				</g>
				<g id="shape257-112" v:mID="257" v:groupContext="shape"
						transform="translate(185.897,279.58) rotate(-43.7357) scale(1,-1)">
					<title>Sheet.257</title>
					<path d="M-0 186.89 A18.2518 24.5418 -180 0 0 18.53 186.89" class="st3"/>
				</g>
				<g id="shape258-115" v:mID="258" v:groupContext="shape"
						transform="translate(-29.2073,266.769) rotate(43.7357) scale(1,-1)">
					<title>Sheet.258</title>
					<path d="M-0 186.89 A18.2518 24.5418 -180 0 0 18.53 186.89" class="st3"/>
				</g>
				<g id="shape259-118" v:mID="259" v:groupContext="shape" transform="translate(97.4981,-36.8592) scale(-1,1)">
					<title>Sheet.259</title>
					<path d="M-0 186.89 A24.5418 24.5418 -180 0 0 24.92 186.89" class="st3"/>
				</g>
				<g id="shape260-121" v:mID="260" v:groupContext="shape" transform="translate(243.584,155.518) rotate(90)">
					<title>Sheet.260</title>
					<path d="M0 186.89 A11.7014 24.5418 -180 0 0 11.88 186.89" class="st3"/>
				</g>
				<g id="shape261-124" v:mID="261" v:groupContext="shape" transform="translate(-73.5049,167.398) rotate(-90)">
					<title>Sheet.261</title>
					<path d="M0 186.89 A11.7014 24.5418 -180 0 0 11.88 186.89" class="st3"/>
				</g>
				<g id="shape262-127" v:mID="262" v:groupContext="shape" transform="translate(243.584,109.811) rotate(90)">
					<title>Sheet.262</title>
					<path d="M0 186.89 A34.2102 24.5418 -180 0 0 34.73 186.89" class="st3"/>
				</g>
				<g id="shape263-130" v:mID="263" v:groupContext="shape" transform="translate(-73.5049,144.545) rotate(-90)">
					<title>Sheet.263</title>
					<path d="M0 186.89 A34.2102 24.5418 -180 0 0 34.73 186.89" class="st3"/>
				</g>
				<g id="shape264-133" v:mID="264" v:groupContext="shape" transform="translate(72.5806,-14.0059)">
					<title>Sheet.264</title>
					<path d="M-0 186.89 A24.5418 24.5418 -180 0 0 24.92 186.89" class="st3"/>
				</g>
				<g id="shape265-136" v:mID="265" v:groupContext="shape" transform="translate(180.704,38.8803) rotate(41.6379)">
					<title>Sheet.265</title>
					<path d="M-0 186.65 A12.8346 12.8346 -180 0 0 17.92 186.65" class="st3"/>
				</g>
				<g id="shape266-139" v:mID="266" v:groupContext="shape" transform="translate(-24.0145,50.7838) rotate(-41.6379)">
					<title>Sheet.266</title>
					<path d="M0 186.65 A12.8346 12.8346 -180 0 0 17.92 186.65" class="st3"/>
				</g>
			</g>
		</g>
	</g>
</svg>
