<?xml version="1.0" encoding="UTF-8" standalone="no"?>
<!DOCTYPE svg PUBLIC "-//W3C//DTD SVG 1.1//EN" "http://www.w3.org/Graphics/SVG/1.1/DTD/svg11.dtd">
<!-- Generated by Microsoft Visio, SVG Export figure-2.svg Page-1 -->
<svg xmlns="http://www.w3.org/2000/svg" xmlns:xlink="http://www.w3.org/1999/xlink" xmlns:ev="http://www.w3.org/2001/xml-events"
		xmlns:v="http://schemas.microsoft.com/visio/2003/SVGExtensions/" width="3.22982in" height="3.11339in"
		viewBox="0 0 232.547 224.164" xml:space="preserve" color-interpolation-filters="sRGB" class="st5">
	<v:documentProperties v:langID="1033" v:viewMarkup="false"/>

	<style type="text/css">
	<![CDATA[
		.st1 {fill:#000000;stroke:#feffff;stroke-width:6}
		.st2 {fill:#000000;font-family:Cambria Math;font-size:1.00001em}
		.st3 {stroke:#000000;stroke-dasharray:3,6;stroke-linecap:round;stroke-linejoin:round;stroke-width:3}
		.st4 {stroke:#000000;stroke-linecap:round;stroke-linejoin:round;stroke-width:3}
		.st5 {fill:none;fill-rule:evenodd;font-size:12px;overflow:visible;stroke-linecap:square;stroke-miterlimit:3}
	]]>
	</style>

	<g v:mID="0" v:index="1" v:groupContext="foregroundPage">
		<title>Page-1</title>
		<v:pageProperties v:drawingScale="0.0393701" v:pageScale="0.0393701" v:drawingUnits="24" v:shadowOffsetX="8.50394"
				v:shadowOffsetY="-8.50394"/>
		<g id="group66-1" transform="translate(13.8543,-9.59609)" v:mID="66" v:groupContext="group">
			<title>Sheet.66</title>
			<g id="shape57-2" v:mID="57" v:groupContext="shape" transform="translate(63.2261,-63.7795)">
				<title>Circle.57</title>
				<desc>010</desc>
				<v:userDefs>
					<v:ud v:nameU="visVersion" v:val="VT0(15):26"/>
				</v:userDefs>
				<v:textBlock v:margins="rect(4,4,4,4)" v:tabSpace="42.5197"/>
				<v:textRect cx="13.7658" cy="226.551" width="28.29" height="10.6299"/>
				<path d="M0 217.08 A7.08661 7.08661 0 0 1 14.17 217.08 A7.08661 7.08661 0 1 1 0 217.08 Z" class="st1"/>
				<text x="3.8" y="230.15" class="st2" v:langID="2052"><v:paragraph v:horizAlign="1"/><v:tabList/>010</text>			</g>
			<g id="shape42-5" v:mID="42" v:groupContext="shape">
				<title>Circle.3</title>
				<desc>000</desc>
				<v:userDefs>
					<v:ud v:nameU="visVersion" v:val="VT0(15):26"/>
				</v:userDefs>
				<v:textBlock v:margins="rect(4,4,4,4)" v:tabSpace="42.5197"/>
				<v:textRect cx="6.94488" cy="226.56" width="29.49" height="10.6299"/>
				<path d="M0 217.08 A7.08661 7.08661 0 0 1 14.17 217.08 A7.08661 7.08661 0 1 1 0 217.08 Z" class="st1"/>
				<text x="-3.02" y="230.16" class="st2" v:langID="2052"><v:paragraph v:horizAlign="1"/><v:tabList/>000</text>			</g>
			<g id="shape43-8" v:mID="43" v:groupContext="shape" transform="translate(127.559,5.68434E-014)">
				<title>Circle.4</title>
				<desc>100</desc>
				<v:userDefs>
					<v:ud v:nameU="visVersion" v:val="VT0(15):26"/>
				</v:userDefs>
				<v:textBlock v:margins="rect(4,4,4,4)" v:tabSpace="42.5197"/>
				<v:textRect cx="6.97752" cy="226.56" width="29.42" height="10.6299"/>
				<path d="M0 217.08 A7.08661 7.08661 0 0 1 14.17 217.08 A7.08661 7.08661 0 1 1 0 217.08 Z" class="st1"/>
				<text x="-2.99" y="230.16" class="st2" v:langID="2052"><v:paragraph v:horizAlign="1"/><v:tabList/>100</text>			</g>
			<g id="shape61-11" v:mID="61" v:groupContext="shape" transform="translate(190.785,-63.7795)">
				<title>Circle.61</title>
				<desc>110</desc>
				<v:userDefs>
					<v:ud v:nameU="visVersion" v:val="VT0(15):26"/>
				</v:userDefs>
				<v:textBlock v:margins="rect(4,4,4,4)" v:tabSpace="42.5197"/>
				<v:textRect cx="13.7658" cy="226.551" width="28.29" height="10.6299"/>
				<path d="M0 217.08 A7.08661 7.08661 0 0 1 14.17 217.08 A7.08661 7.08661 0 1 1 0 217.08 Z" class="st1"/>
				<text x="3.8" y="230.15" class="st2" v:langID="2052"><v:paragraph v:horizAlign="1"/><v:tabList/>110</text>			</g>
			<g id="shape58-14" v:mID="58" v:groupContext="shape" transform="translate(190.785,-190.785)">
				<title>Circle.58</title>
				<desc>111</desc>
				<v:userDefs>
					<v:ud v:nameU="visVersion" v:val="VT0(15):26"/>
				</v:userDefs>
				<v:textBlock v:margins="rect(4,4,4,4)" v:tabSpace="42.5197"/>
				<v:textRect cx="6.78967" cy="207.581" width="28.07" height="10.6299"/>
				<path d="M0 217.08 A7.08661 7.08661 0 0 1 14.17 217.08 A7.08661 7.08661 0 1 1 0 217.08 Z" class="st1"/>
				<text x="-3.18" y="211.18" class="st2" v:langID="2052"><v:paragraph v:horizAlign="1"/><v:tabList/>111</text>			</g>
			<g id="shape41-17" v:mID="41" v:groupContext="shape" transform="translate(127.559,-127.559)">
				<title>Circle.41</title>
				<desc>101</desc>
				<v:userDefs>
					<v:ud v:nameU="visVersion" v:val="VT0(15):26"/>
				</v:userDefs>
				<v:textBlock v:margins="rect(4,4,4,4)" v:tabSpace="42.5197"/>
				<v:textRect cx="0.566929" cy="207.78" width="28.07" height="10.6299"/>
				<path d="M0 217.08 A7.08661 7.08661 0 0 1 14.17 217.08 A7.08661 7.08661 0 1 1 0 217.08 Z" class="st1"/>
				<text x="-9.4" y="211.38" class="st2" v:langID="2052"><v:paragraph v:horizAlign="1"/><v:tabList/>101</text>			</g>
			<g id="shape40-20" v:mID="40" v:groupContext="shape" transform="translate(4.79616E-014,-127.559)">
				<title>Circle</title>
				<desc>001</desc>
				<v:userDefs>
					<v:ud v:nameU="visVersion" v:val="VT0(15):26"/>
				</v:userDefs>
				<v:textBlock v:margins="rect(4,4,4,4)" v:tabSpace="42.5197"/>
				<v:textRect cx="0.372047" cy="207.78" width="28.46" height="10.6299"/>
				<path d="M0 217.08 A7.08661 7.08661 0 1 1 14.17 217.08 A7.08661 7.08661 0 0 1 0 217.08 Z" class="st1"/>
				<text x="-9.59" y="211.38" class="st2" v:langID="2052"><v:paragraph v:horizAlign="1"/><v:tabList/>001</text>			</g>
			<g id="shape56-23" v:mID="56" v:groupContext="shape" transform="translate(63.2261,-190.785)">
				<title>Circle.2</title>
				<desc>011</desc>
				<v:userDefs>
					<v:ud v:nameU="visVersion" v:val="VT0(15):26"/>
				</v:userDefs>
				<v:textBlock v:margins="rect(4,4,4,4)" v:tabSpace="42.5197"/>
				<v:textRect cx="6.78967" cy="207.581" width="28.07" height="10.6299"/>
				<path d="M0 217.08 A7.08661 7.08661 0 0 1 14.17 217.08 A7.08661 7.08661 0 1 1 0 217.08 Z" class="st1"/>
				<text x="-3.18" y="211.18" class="st2" v:langID="2052"><v:paragraph v:horizAlign="1"/><v:tabList/>011</text>			</g>
			<g id="shape55-26" v:mID="55" v:groupContext="shape" transform="translate(-153.851,146.211) rotate(-90)">
				<title>Sheet.55</title>
				<path d="M0 224.16 L112.83 224.16" class="st3"/>
			</g>
			<g id="shape52-29" v:mID="52" v:groupContext="shape" transform="translate(-147.228,54.3801) rotate(-45.2965)">
				<title>Sheet.52</title>
				<path d="M0 224.16 L75.63 224.16" class="st3"/>
			</g>
			<g id="shape63-32" v:mID="63" v:groupContext="shape" transform="translate(77.3993,-70.8661)">
				<title>Sheet.63</title>
				<path d="M0 224.16 L113.39 224.16" class="st3"/>
			</g>
			<g id="shape44-35" v:mID="44" v:groupContext="shape" transform="translate(14.1732,-134.646)">
				<title>Sheet.44</title>
				<path d="M0 224.16 L113.39 224.16" class="st4"/>
			</g>
			<g id="shape54-38" v:mID="54" v:groupContext="shape" transform="translate(-146.41,-74.0013) rotate(-45)">
				<title>Sheet.54</title>
				<path d="M0 224.16 L75.24 224.16" class="st4"/>
			</g>
			<g id="shape59-41" v:mID="59" v:groupContext="shape" transform="translate(-18.8504,-74.0013) rotate(-45)">
				<title>Sheet.59</title>
				<path d="M0 224.16 L75.24 224.16" class="st4"/>
			</g>
			<g id="shape53-44" v:mID="53" v:groupContext="shape" transform="translate(77.3993,-197.872)">
				<title>Sheet.53</title>
				<path d="M0 224.16 L113.39 224.16" class="st4"/>
			</g>
			<g id="shape62-47" v:mID="62" v:groupContext="shape" transform="translate(-26.2921,146.211) rotate(-90)">
				<title>Sheet.62</title>
				<path d="M0 224.16 L112.83 224.16" class="st4"/>
			</g>
			<g id="shape47-50" v:mID="47" v:groupContext="shape" transform="translate(358.81,96.6048) rotate(90)">
				<title>Sheet.47</title>
				<path d="M0 224.16 L113.39 224.16" class="st4"/>
			</g>
			<g id="shape60-53" v:mID="60" v:groupContext="shape" transform="translate(-19.6685,54.3801) rotate(-45.2965)">
				<title>Sheet.60</title>
				<path d="M0 224.16 L75.63 224.16" class="st4"/>
			</g>
			<g id="shape46-56" v:mID="46" v:groupContext="shape" transform="translate(14.1732,-7.08661)">
				<title>Sheet.46</title>
				<path d="M0 224.16 L113.39 224.16" class="st4"/>
			</g>
			<g id="shape45-59" v:mID="45" v:groupContext="shape" transform="translate(231.25,96.6048) rotate(90)">
				<title>Sheet.45</title>
				<path d="M0 224.16 L113.39 224.16" class="st4"/>
			</g>
		</g>
	</g>
</svg>
