<?xml version="1.0" encoding="UTF-8" standalone="no"?>
<!DOCTYPE svg PUBLIC "-//W3C//DTD SVG 1.1//EN" "http://www.w3.org/Graphics/SVG/1.1/DTD/svg11.dtd">
<!-- Generated by Microsoft Visio, SVG Export figure-4.svg Page-1 -->
<svg xmlns="http://www.w3.org/2000/svg" xmlns:xlink="http://www.w3.org/1999/xlink" xmlns:ev="http://www.w3.org/2001/xml-events"
		xmlns:v="http://schemas.microsoft.com/visio/2003/SVGExtensions/" width="2.81742in" height="3.77392in"
		viewBox="0 0 202.854 271.722" xml:space="preserve" color-interpolation-filters="sRGB" class="st5">
	<v:documentProperties v:langID="1033" v:viewMarkup="false"/>

	<style type="text/css">
	<![CDATA[
		.st1 {fill:#ffffff;stroke:#000000;stroke-linecap:round;stroke-linejoin:round;stroke-width:1}
		.st2 {fill:#000000;font-family:Cambria Math;font-size:0.833336em}
		.st3 {marker-end:url(#mrkr13-57);stroke:#000000;stroke-linecap:round;stroke-linejoin:round;stroke-width:1}
		.st4 {fill:#000000;fill-opacity:1;stroke:#000000;stroke-opacity:1;stroke-width:0.40983606557377}
		.st5 {fill:none;fill-rule:evenodd;font-size:12px;overflow:visible;stroke-linecap:square;stroke-miterlimit:3}
	]]>
	</style>

	<defs id="Markers">
		<g id="lend13">
			<path d="M 3 1 L 0 0 L 3 -1 L 3 1 " style="stroke:none"/>
		</g>
		<marker id="mrkr13-57" class="st4" v:arrowType="13" v:arrowSize="0" v:setback="6.96" refX="-6.96" orient="auto"
				markerUnits="strokeWidth" overflow="visible">
			<use xlink:href="#lend13" transform="scale(-2.44,-2.44) "/>
		</marker>
	</defs>
	<g v:mID="0" v:index="1" v:groupContext="foregroundPage">
		<title>Page-1</title>
		<v:pageProperties v:drawingScale="0.0393701" v:pageScale="0.0393701" v:drawingUnits="24" v:shadowOffsetX="8.50394"
				v:shadowOffsetY="-8.50394"/>
		<g id="group210-1" transform="translate(0.499948,-7.71596)" v:mID="210" v:groupContext="group">
			<title>Sheet.210</title>
			<g id="group156-2" transform="translate(0,-33.5147)" v:mID="156" v:groupContext="group">
				<title>Sheet.156</title>
				<g id="shape139-3" v:mID="139" v:groupContext="shape" transform="translate(85.0394,0)">
					<title>Rounded Rectangle</title>
					<desc>0000</desc>
					<v:userDefs>
						<v:ud v:nameU="CTypeTopLeftSnip" v:prompt="" v:val="VT0(0):5"/>
						<v:ud v:nameU="CTypeTopRightSnip" v:prompt="" v:val="VT0(0):5"/>
						<v:ud v:nameU="CTypeBotLeftSnip" v:prompt="" v:val="VT0(0):5"/>
						<v:ud v:nameU="CTypeBotRightSnip" v:prompt="" v:val="VT0(0):5"/>
						<v:ud v:nameU="CornerLockHoriz" v:prompt="" v:val="VT0(1):5"/>
						<v:ud v:nameU="CornerLockVert" v:prompt="" v:val="VT0(1):5"/>
						<v:ud v:nameU="CornerLockDiag" v:prompt="" v:val="VT0(0):5"/>
						<v:ud v:nameU="TopLeftOffset" v:prompt="" v:val="VT0(0.15748031496063):24"/>
						<v:ud v:nameU="TopRightOffset" v:prompt="" v:val="VT0(0.15748031496063):24"/>
						<v:ud v:nameU="BotLeftOffset" v:prompt="" v:val="VT0(0.15748031496063):24"/>
						<v:ud v:nameU="BotRightOffset" v:prompt="" v:val="VT0(0.15748031496063):24"/>
						<v:ud v:nameU="visVersion" v:prompt="" v:val="VT0(15):26"/>
						<v:ud v:nameU="TopLeftOffset" v:prompt="" v:val="VT0(0.044132588265176):1"/>
						<v:ud v:nameU="TopRightOffset" v:prompt="" v:val="VT0(0.044132588265176):1"/>
						<v:ud v:nameU="BotLeftOffset" v:prompt="" v:val="VT0(0.044132588265176):1"/>
						<v:ud v:nameU="BotRightOffset" v:prompt="" v:val="VT0(0.044132588265176):1"/>
					</v:userDefs>
					<v:textBlock v:margins="rect(4,4,4,4)" v:tabSpace="42.5197"/>
					<v:textRect cx="15.8877" cy="266.236" width="31.78" height="10.9728"/>
					<path d="M3.18 271.72 L28.6 271.72 A3.17749 3.17749 -180 0 0 31.78 268.54 L31.78 263.93 A3.17749 3.17749 -180
								 0 0 28.6 260.75 L3.18 260.75 A3.17749 3.17749 -180 0 0 0 263.93 L0 268.54 A3.17749 3.17749 -180
								 0 0 3.18 271.72 Z" class="st1"/>
					<text x="4.81" y="269.24" class="st2" v:langID="2052"><v:paragraph v:horizAlign="1"/><v:tabList/>0000</text>				</g>
				<g id="shape141-6" v:mID="141" v:groupContext="shape" transform="translate(113.386,-21.9456)">
					<title>Rounded Rectangle.141</title>
					<desc>0001</desc>
					<v:userDefs>
						<v:ud v:nameU="CTypeTopLeftSnip" v:prompt="" v:val="VT0(0):5"/>
						<v:ud v:nameU="CTypeTopRightSnip" v:prompt="" v:val="VT0(0):5"/>
						<v:ud v:nameU="CTypeBotLeftSnip" v:prompt="" v:val="VT0(0):5"/>
						<v:ud v:nameU="CTypeBotRightSnip" v:prompt="" v:val="VT0(0):5"/>
						<v:ud v:nameU="CornerLockHoriz" v:prompt="" v:val="VT0(1):5"/>
						<v:ud v:nameU="CornerLockVert" v:prompt="" v:val="VT0(1):5"/>
						<v:ud v:nameU="CornerLockDiag" v:prompt="" v:val="VT0(0):5"/>
						<v:ud v:nameU="TopLeftOffset" v:prompt="" v:val="VT0(0.15748031496063):24"/>
						<v:ud v:nameU="TopRightOffset" v:prompt="" v:val="VT0(0.15748031496063):24"/>
						<v:ud v:nameU="BotLeftOffset" v:prompt="" v:val="VT0(0.15748031496063):24"/>
						<v:ud v:nameU="BotRightOffset" v:prompt="" v:val="VT0(0.15748031496063):24"/>
						<v:ud v:nameU="visVersion" v:prompt="" v:val="VT0(15):26"/>
						<v:ud v:nameU="TopLeftOffset" v:prompt="" v:val="VT0(0.044132588265176):1"/>
						<v:ud v:nameU="TopRightOffset" v:prompt="" v:val="VT0(0.044132588265176):1"/>
						<v:ud v:nameU="BotLeftOffset" v:prompt="" v:val="VT0(0.044132588265176):1"/>
						<v:ud v:nameU="BotRightOffset" v:prompt="" v:val="VT0(0.044132588265176):1"/>
					</v:userDefs>
					<v:textBlock v:margins="rect(4,4,4,4)" v:tabSpace="42.5197"/>
					<v:textRect cx="15.8877" cy="266.236" width="31.78" height="10.9728"/>
					<path d="M3.18 271.72 L28.6 271.72 A3.17749 3.17749 -180 0 0 31.78 268.54 L31.78 263.93 A3.17749 3.17749 -180
								 0 0 28.6 260.75 L3.18 260.75 A3.17749 3.17749 -180 0 0 0 263.93 L0 268.54 A3.17749 3.17749 -180
								 0 0 3.18 271.72 Z" class="st1"/>
					<text x="4.81" y="269.24" class="st2" v:langID="2052"><v:paragraph v:horizAlign="1"/><v:tabList/>0001</text>				</g>
				<g id="shape142-9" v:mID="142" v:groupContext="shape" transform="translate(113.386,-44.799)">
					<title>Rounded Rectangle.142</title>
					<desc>0010</desc>
					<v:userDefs>
						<v:ud v:nameU="CTypeTopLeftSnip" v:prompt="" v:val="VT0(0):5"/>
						<v:ud v:nameU="CTypeTopRightSnip" v:prompt="" v:val="VT0(0):5"/>
						<v:ud v:nameU="CTypeBotLeftSnip" v:prompt="" v:val="VT0(0):5"/>
						<v:ud v:nameU="CTypeBotRightSnip" v:prompt="" v:val="VT0(0):5"/>
						<v:ud v:nameU="CornerLockHoriz" v:prompt="" v:val="VT0(1):5"/>
						<v:ud v:nameU="CornerLockVert" v:prompt="" v:val="VT0(1):5"/>
						<v:ud v:nameU="CornerLockDiag" v:prompt="" v:val="VT0(0):5"/>
						<v:ud v:nameU="TopLeftOffset" v:prompt="" v:val="VT0(0.15748031496063):24"/>
						<v:ud v:nameU="TopRightOffset" v:prompt="" v:val="VT0(0.15748031496063):24"/>
						<v:ud v:nameU="BotLeftOffset" v:prompt="" v:val="VT0(0.15748031496063):24"/>
						<v:ud v:nameU="BotRightOffset" v:prompt="" v:val="VT0(0.15748031496063):24"/>
						<v:ud v:nameU="visVersion" v:prompt="" v:val="VT0(15):26"/>
						<v:ud v:nameU="TopLeftOffset" v:prompt="" v:val="VT0(0.044132588265176):1"/>
						<v:ud v:nameU="TopRightOffset" v:prompt="" v:val="VT0(0.044132588265176):1"/>
						<v:ud v:nameU="BotLeftOffset" v:prompt="" v:val="VT0(0.044132588265176):1"/>
						<v:ud v:nameU="BotRightOffset" v:prompt="" v:val="VT0(0.044132588265176):1"/>
					</v:userDefs>
					<v:textBlock v:margins="rect(4,4,4,4)" v:tabSpace="42.5197"/>
					<v:textRect cx="15.8877" cy="266.236" width="31.78" height="10.9728"/>
					<path d="M3.18 271.72 L28.6 271.72 A3.17749 3.17749 -180 0 0 31.78 268.54 L31.78 263.93 A3.17749 3.17749 -180
								 0 0 28.6 260.75 L3.18 260.75 A3.17749 3.17749 -180 0 0 0 263.93 L0 268.54 A3.17749 3.17749 -180
								 0 0 3.18 271.72 Z" class="st1"/>
					<text x="4.81" y="269.24" class="st2" v:langID="2052"><v:paragraph v:horizAlign="1"/><v:tabList/>0010</text>				</g>
				<g id="shape143-12" v:mID="143" v:groupContext="shape" transform="translate(56.6929,-21.9456)">
					<title>Rounded Rectangle.143</title>
					<desc>1000</desc>
					<v:userDefs>
						<v:ud v:nameU="CTypeTopLeftSnip" v:prompt="" v:val="VT0(0):5"/>
						<v:ud v:nameU="CTypeTopRightSnip" v:prompt="" v:val="VT0(0):5"/>
						<v:ud v:nameU="CTypeBotLeftSnip" v:prompt="" v:val="VT0(0):5"/>
						<v:ud v:nameU="CTypeBotRightSnip" v:prompt="" v:val="VT0(0):5"/>
						<v:ud v:nameU="CornerLockHoriz" v:prompt="" v:val="VT0(1):5"/>
						<v:ud v:nameU="CornerLockVert" v:prompt="" v:val="VT0(1):5"/>
						<v:ud v:nameU="CornerLockDiag" v:prompt="" v:val="VT0(0):5"/>
						<v:ud v:nameU="TopLeftOffset" v:prompt="" v:val="VT0(0.15748031496063):24"/>
						<v:ud v:nameU="TopRightOffset" v:prompt="" v:val="VT0(0.15748031496063):24"/>
						<v:ud v:nameU="BotLeftOffset" v:prompt="" v:val="VT0(0.15748031496063):24"/>
						<v:ud v:nameU="BotRightOffset" v:prompt="" v:val="VT0(0.15748031496063):24"/>
						<v:ud v:nameU="visVersion" v:prompt="" v:val="VT0(15):26"/>
						<v:ud v:nameU="TopLeftOffset" v:prompt="" v:val="VT0(0.044132588265176):1"/>
						<v:ud v:nameU="TopRightOffset" v:prompt="" v:val="VT0(0.044132588265176):1"/>
						<v:ud v:nameU="BotLeftOffset" v:prompt="" v:val="VT0(0.044132588265176):1"/>
						<v:ud v:nameU="BotRightOffset" v:prompt="" v:val="VT0(0.044132588265176):1"/>
					</v:userDefs>
					<v:textBlock v:margins="rect(4,4,4,4)" v:tabSpace="42.5197"/>
					<v:textRect cx="15.8877" cy="266.236" width="31.78" height="10.9728"/>
					<path d="M3.18 271.72 L28.6 271.72 A3.17749 3.17749 -180 0 0 31.78 268.54 L31.78 263.93 A3.17749 3.17749 -180
								 0 0 28.6 260.75 L3.18 260.75 A3.17749 3.17749 -180 0 0 0 263.93 L0 268.54 A3.17749 3.17749 -180
								 0 0 3.18 271.72 Z" class="st1"/>
					<text x="4.81" y="269.24" class="st2" v:langID="2052"><v:paragraph v:horizAlign="1"/><v:tabList/>1000</text>				</g>
				<g id="shape144-15" v:mID="144" v:groupContext="shape" transform="translate(56.6929,-44.799)">
					<title>Rounded Rectangle.144</title>
					<desc>0100</desc>
					<v:userDefs>
						<v:ud v:nameU="CTypeTopLeftSnip" v:prompt="" v:val="VT0(0):5"/>
						<v:ud v:nameU="CTypeTopRightSnip" v:prompt="" v:val="VT0(0):5"/>
						<v:ud v:nameU="CTypeBotLeftSnip" v:prompt="" v:val="VT0(0):5"/>
						<v:ud v:nameU="CTypeBotRightSnip" v:prompt="" v:val="VT0(0):5"/>
						<v:ud v:nameU="CornerLockHoriz" v:prompt="" v:val="VT0(1):5"/>
						<v:ud v:nameU="CornerLockVert" v:prompt="" v:val="VT0(1):5"/>
						<v:ud v:nameU="CornerLockDiag" v:prompt="" v:val="VT0(0):5"/>
						<v:ud v:nameU="TopLeftOffset" v:prompt="" v:val="VT0(0.15748031496063):24"/>
						<v:ud v:nameU="TopRightOffset" v:prompt="" v:val="VT0(0.15748031496063):24"/>
						<v:ud v:nameU="BotLeftOffset" v:prompt="" v:val="VT0(0.15748031496063):24"/>
						<v:ud v:nameU="BotRightOffset" v:prompt="" v:val="VT0(0.15748031496063):24"/>
						<v:ud v:nameU="visVersion" v:prompt="" v:val="VT0(15):26"/>
						<v:ud v:nameU="TopLeftOffset" v:prompt="" v:val="VT0(0.044132588265176):1"/>
						<v:ud v:nameU="TopRightOffset" v:prompt="" v:val="VT0(0.044132588265176):1"/>
						<v:ud v:nameU="BotLeftOffset" v:prompt="" v:val="VT0(0.044132588265176):1"/>
						<v:ud v:nameU="BotRightOffset" v:prompt="" v:val="VT0(0.044132588265176):1"/>
					</v:userDefs>
					<v:textBlock v:margins="rect(4,4,4,4)" v:tabSpace="42.5197"/>
					<v:textRect cx="15.8877" cy="266.236" width="31.78" height="10.9728"/>
					<path d="M3.18 271.72 L28.6 271.72 A3.17749 3.17749 -180 0 0 31.78 268.54 L31.78 263.93 A3.17749 3.17749 -180
								 0 0 28.6 260.75 L3.18 260.75 A3.17749 3.17749 -180 0 0 0 263.93 L0 268.54 A3.17749 3.17749 -180
								 0 0 3.18 271.72 Z" class="st1"/>
					<text x="4.81" y="269.24" class="st2" v:langID="2052"><v:paragraph v:horizAlign="1"/><v:tabList/>0100</text>				</g>
				<g id="shape145-18" v:mID="145" v:groupContext="shape" transform="translate(85.0394,-67.6523)">
					<title>Rounded Rectangle.145</title>
					<desc>1001</desc>
					<v:userDefs>
						<v:ud v:nameU="CTypeTopLeftSnip" v:prompt="" v:val="VT0(0):5"/>
						<v:ud v:nameU="CTypeTopRightSnip" v:prompt="" v:val="VT0(0):5"/>
						<v:ud v:nameU="CTypeBotLeftSnip" v:prompt="" v:val="VT0(0):5"/>
						<v:ud v:nameU="CTypeBotRightSnip" v:prompt="" v:val="VT0(0):5"/>
						<v:ud v:nameU="CornerLockHoriz" v:prompt="" v:val="VT0(1):5"/>
						<v:ud v:nameU="CornerLockVert" v:prompt="" v:val="VT0(1):5"/>
						<v:ud v:nameU="CornerLockDiag" v:prompt="" v:val="VT0(0):5"/>
						<v:ud v:nameU="TopLeftOffset" v:prompt="" v:val="VT0(0.15748031496063):24"/>
						<v:ud v:nameU="TopRightOffset" v:prompt="" v:val="VT0(0.15748031496063):24"/>
						<v:ud v:nameU="BotLeftOffset" v:prompt="" v:val="VT0(0.15748031496063):24"/>
						<v:ud v:nameU="BotRightOffset" v:prompt="" v:val="VT0(0.15748031496063):24"/>
						<v:ud v:nameU="visVersion" v:prompt="" v:val="VT0(15):26"/>
						<v:ud v:nameU="TopLeftOffset" v:prompt="" v:val="VT0(0.044132588265176):1"/>
						<v:ud v:nameU="TopRightOffset" v:prompt="" v:val="VT0(0.044132588265176):1"/>
						<v:ud v:nameU="BotLeftOffset" v:prompt="" v:val="VT0(0.044132588265176):1"/>
						<v:ud v:nameU="BotRightOffset" v:prompt="" v:val="VT0(0.044132588265176):1"/>
					</v:userDefs>
					<v:textBlock v:margins="rect(4,4,4,4)" v:tabSpace="42.5197"/>
					<v:textRect cx="15.8877" cy="266.236" width="31.78" height="10.9728"/>
					<path d="M3.18 271.72 L28.6 271.72 A3.17749 3.17749 -180 0 0 31.78 268.54 L31.78 263.93 A3.17749 3.17749 -180
								 0 0 28.6 260.75 L3.18 260.75 A3.17749 3.17749 -180 0 0 0 263.93 L0 268.54 A3.17749 3.17749 -180
								 0 0 3.18 271.72 Z" class="st1"/>
					<text x="4.81" y="269.24" class="st2" v:langID="2052"><v:paragraph v:horizAlign="1"/><v:tabList/>1001</text>				</g>
				<g id="shape146-21" v:mID="146" v:groupContext="shape" transform="translate(56.6929,-90.5056)">
					<title>Rounded Rectangle.146</title>
					<desc>1010</desc>
					<v:userDefs>
						<v:ud v:nameU="CTypeTopLeftSnip" v:prompt="" v:val="VT0(0):5"/>
						<v:ud v:nameU="CTypeTopRightSnip" v:prompt="" v:val="VT0(0):5"/>
						<v:ud v:nameU="CTypeBotLeftSnip" v:prompt="" v:val="VT0(0):5"/>
						<v:ud v:nameU="CTypeBotRightSnip" v:prompt="" v:val="VT0(0):5"/>
						<v:ud v:nameU="CornerLockHoriz" v:prompt="" v:val="VT0(1):5"/>
						<v:ud v:nameU="CornerLockVert" v:prompt="" v:val="VT0(1):5"/>
						<v:ud v:nameU="CornerLockDiag" v:prompt="" v:val="VT0(0):5"/>
						<v:ud v:nameU="TopLeftOffset" v:prompt="" v:val="VT0(0.15748031496063):24"/>
						<v:ud v:nameU="TopRightOffset" v:prompt="" v:val="VT0(0.15748031496063):24"/>
						<v:ud v:nameU="BotLeftOffset" v:prompt="" v:val="VT0(0.15748031496063):24"/>
						<v:ud v:nameU="BotRightOffset" v:prompt="" v:val="VT0(0.15748031496063):24"/>
						<v:ud v:nameU="visVersion" v:prompt="" v:val="VT0(15):26"/>
						<v:ud v:nameU="TopLeftOffset" v:prompt="" v:val="VT0(0.044132588265176):1"/>
						<v:ud v:nameU="TopRightOffset" v:prompt="" v:val="VT0(0.044132588265176):1"/>
						<v:ud v:nameU="BotLeftOffset" v:prompt="" v:val="VT0(0.044132588265176):1"/>
						<v:ud v:nameU="BotRightOffset" v:prompt="" v:val="VT0(0.044132588265176):1"/>
					</v:userDefs>
					<v:textBlock v:margins="rect(4,4,4,4)" v:tabSpace="42.5197"/>
					<v:textRect cx="15.8877" cy="266.236" width="31.78" height="10.9728"/>
					<path d="M3.18 271.72 L28.6 271.72 A3.17749 3.17749 -180 0 0 31.78 268.54 L31.78 263.93 A3.17749 3.17749 -180
								 0 0 28.6 260.75 L3.18 260.75 A3.17749 3.17749 -180 0 0 0 263.93 L0 268.54 A3.17749 3.17749 -180
								 0 0 3.18 271.72 Z" class="st1"/>
					<text x="4.81" y="269.24" class="st2" v:langID="2052"><v:paragraph v:horizAlign="1"/><v:tabList/>1010</text>				</g>
				<g id="shape147-24" v:mID="147" v:groupContext="shape" transform="translate(113.386,-90.5056)">
					<title>Rounded Rectangle.147</title>
					<desc>0101</desc>
					<v:userDefs>
						<v:ud v:nameU="CTypeTopLeftSnip" v:prompt="" v:val="VT0(0):5"/>
						<v:ud v:nameU="CTypeTopRightSnip" v:prompt="" v:val="VT0(0):5"/>
						<v:ud v:nameU="CTypeBotLeftSnip" v:prompt="" v:val="VT0(0):5"/>
						<v:ud v:nameU="CTypeBotRightSnip" v:prompt="" v:val="VT0(0):5"/>
						<v:ud v:nameU="CornerLockHoriz" v:prompt="" v:val="VT0(1):5"/>
						<v:ud v:nameU="CornerLockVert" v:prompt="" v:val="VT0(1):5"/>
						<v:ud v:nameU="CornerLockDiag" v:prompt="" v:val="VT0(0):5"/>
						<v:ud v:nameU="TopLeftOffset" v:prompt="" v:val="VT0(0.15748031496063):24"/>
						<v:ud v:nameU="TopRightOffset" v:prompt="" v:val="VT0(0.15748031496063):24"/>
						<v:ud v:nameU="BotLeftOffset" v:prompt="" v:val="VT0(0.15748031496063):24"/>
						<v:ud v:nameU="BotRightOffset" v:prompt="" v:val="VT0(0.15748031496063):24"/>
						<v:ud v:nameU="visVersion" v:prompt="" v:val="VT0(15):26"/>
						<v:ud v:nameU="TopLeftOffset" v:prompt="" v:val="VT0(0.044132588265176):1"/>
						<v:ud v:nameU="TopRightOffset" v:prompt="" v:val="VT0(0.044132588265176):1"/>
						<v:ud v:nameU="BotLeftOffset" v:prompt="" v:val="VT0(0.044132588265176):1"/>
						<v:ud v:nameU="BotRightOffset" v:prompt="" v:val="VT0(0.044132588265176):1"/>
					</v:userDefs>
					<v:textBlock v:margins="rect(4,4,4,4)" v:tabSpace="42.5197"/>
					<v:textRect cx="15.8877" cy="266.236" width="31.78" height="10.9728"/>
					<path d="M3.18 271.72 L28.6 271.72 A3.17749 3.17749 -180 0 0 31.78 268.54 L31.78 263.93 A3.17749 3.17749 -180
								 0 0 28.6 260.75 L3.18 260.75 A3.17749 3.17749 -180 0 0 0 263.93 L0 268.54 A3.17749 3.17749 -180
								 0 0 3.18 271.72 Z" class="st1"/>
					<text x="4.81" y="269.24" class="st2" v:langID="2052"><v:paragraph v:horizAlign="1"/><v:tabList/>0101</text>				</g>
				<g id="shape148-27" v:mID="148" v:groupContext="shape" transform="translate(0,-90.5056)">
					<title>Rounded Rectangle.148</title>
					<desc>1100</desc>
					<v:userDefs>
						<v:ud v:nameU="CTypeTopLeftSnip" v:prompt="" v:val="VT0(0):5"/>
						<v:ud v:nameU="CTypeTopRightSnip" v:prompt="" v:val="VT0(0):5"/>
						<v:ud v:nameU="CTypeBotLeftSnip" v:prompt="" v:val="VT0(0):5"/>
						<v:ud v:nameU="CTypeBotRightSnip" v:prompt="" v:val="VT0(0):5"/>
						<v:ud v:nameU="CornerLockHoriz" v:prompt="" v:val="VT0(1):5"/>
						<v:ud v:nameU="CornerLockVert" v:prompt="" v:val="VT0(1):5"/>
						<v:ud v:nameU="CornerLockDiag" v:prompt="" v:val="VT0(0):5"/>
						<v:ud v:nameU="TopLeftOffset" v:prompt="" v:val="VT0(0.15748031496063):24"/>
						<v:ud v:nameU="TopRightOffset" v:prompt="" v:val="VT0(0.15748031496063):24"/>
						<v:ud v:nameU="BotLeftOffset" v:prompt="" v:val="VT0(0.15748031496063):24"/>
						<v:ud v:nameU="BotRightOffset" v:prompt="" v:val="VT0(0.15748031496063):24"/>
						<v:ud v:nameU="visVersion" v:prompt="" v:val="VT0(15):26"/>
						<v:ud v:nameU="TopLeftOffset" v:prompt="" v:val="VT0(0.044132588265176):1"/>
						<v:ud v:nameU="TopRightOffset" v:prompt="" v:val="VT0(0.044132588265176):1"/>
						<v:ud v:nameU="BotLeftOffset" v:prompt="" v:val="VT0(0.044132588265176):1"/>
						<v:ud v:nameU="BotRightOffset" v:prompt="" v:val="VT0(0.044132588265176):1"/>
					</v:userDefs>
					<v:textBlock v:margins="rect(4,4,4,4)" v:tabSpace="42.5197"/>
					<v:textRect cx="15.8877" cy="266.236" width="31.78" height="10.9728"/>
					<path d="M3.18 271.72 L28.6 271.72 A3.17749 3.17749 -180 0 0 31.78 268.54 L31.78 263.93 A3.17749 3.17749 -180
								 0 0 28.6 260.75 L3.18 260.75 A3.17749 3.17749 -180 0 0 0 263.93 L0 268.54 A3.17749 3.17749 -180
								 0 0 3.18 271.72 Z" class="st1"/>
					<text x="4.81" y="269.24" class="st2" v:langID="2052"><v:paragraph v:horizAlign="1"/><v:tabList/>1100</text>				</g>
				<g id="shape149-30" v:mID="149" v:groupContext="shape" transform="translate(170.079,-90.5056)">
					<title>Rounded Rectangle.149</title>
					<desc>0011</desc>
					<v:userDefs>
						<v:ud v:nameU="CTypeTopLeftSnip" v:prompt="" v:val="VT0(0):5"/>
						<v:ud v:nameU="CTypeTopRightSnip" v:prompt="" v:val="VT0(0):5"/>
						<v:ud v:nameU="CTypeBotLeftSnip" v:prompt="" v:val="VT0(0):5"/>
						<v:ud v:nameU="CTypeBotRightSnip" v:prompt="" v:val="VT0(0):5"/>
						<v:ud v:nameU="CornerLockHoriz" v:prompt="" v:val="VT0(1):5"/>
						<v:ud v:nameU="CornerLockVert" v:prompt="" v:val="VT0(1):5"/>
						<v:ud v:nameU="CornerLockDiag" v:prompt="" v:val="VT0(0):5"/>
						<v:ud v:nameU="TopLeftOffset" v:prompt="" v:val="VT0(0.15748031496063):24"/>
						<v:ud v:nameU="TopRightOffset" v:prompt="" v:val="VT0(0.15748031496063):24"/>
						<v:ud v:nameU="BotLeftOffset" v:prompt="" v:val="VT0(0.15748031496063):24"/>
						<v:ud v:nameU="BotRightOffset" v:prompt="" v:val="VT0(0.15748031496063):24"/>
						<v:ud v:nameU="visVersion" v:prompt="" v:val="VT0(15):26"/>
						<v:ud v:nameU="TopLeftOffset" v:prompt="" v:val="VT0(0.044132588265176):1"/>
						<v:ud v:nameU="TopRightOffset" v:prompt="" v:val="VT0(0.044132588265176):1"/>
						<v:ud v:nameU="BotLeftOffset" v:prompt="" v:val="VT0(0.044132588265176):1"/>
						<v:ud v:nameU="BotRightOffset" v:prompt="" v:val="VT0(0.044132588265176):1"/>
					</v:userDefs>
					<v:textBlock v:margins="rect(4,4,4,4)" v:tabSpace="42.5197"/>
					<v:textRect cx="15.8877" cy="266.236" width="31.78" height="10.9728"/>
					<path d="M3.18 271.72 L28.6 271.72 A3.17749 3.17749 -180 0 0 31.78 268.54 L31.78 263.93 A3.17749 3.17749 -180
								 0 0 28.6 260.75 L3.18 260.75 A3.17749 3.17749 -180 0 0 0 263.93 L0 268.54 A3.17749 3.17749 -180
								 0 0 3.18 271.72 Z" class="st1"/>
					<text x="4.81" y="269.24" class="st2" v:langID="2052"><v:paragraph v:horizAlign="1"/><v:tabList/>0011</text>				</g>
				<g id="shape150-33" v:mID="150" v:groupContext="shape" transform="translate(85.0394,-112.451)">
					<title>Rounded Rectangle.150</title>
					<desc>0110</desc>
					<v:userDefs>
						<v:ud v:nameU="CTypeTopLeftSnip" v:prompt="" v:val="VT0(0):5"/>
						<v:ud v:nameU="CTypeTopRightSnip" v:prompt="" v:val="VT0(0):5"/>
						<v:ud v:nameU="CTypeBotLeftSnip" v:prompt="" v:val="VT0(0):5"/>
						<v:ud v:nameU="CTypeBotRightSnip" v:prompt="" v:val="VT0(0):5"/>
						<v:ud v:nameU="CornerLockHoriz" v:prompt="" v:val="VT0(1):5"/>
						<v:ud v:nameU="CornerLockVert" v:prompt="" v:val="VT0(1):5"/>
						<v:ud v:nameU="CornerLockDiag" v:prompt="" v:val="VT0(0):5"/>
						<v:ud v:nameU="TopLeftOffset" v:prompt="" v:val="VT0(0.15748031496063):24"/>
						<v:ud v:nameU="TopRightOffset" v:prompt="" v:val="VT0(0.15748031496063):24"/>
						<v:ud v:nameU="BotLeftOffset" v:prompt="" v:val="VT0(0.15748031496063):24"/>
						<v:ud v:nameU="BotRightOffset" v:prompt="" v:val="VT0(0.15748031496063):24"/>
						<v:ud v:nameU="visVersion" v:prompt="" v:val="VT0(15):26"/>
						<v:ud v:nameU="TopLeftOffset" v:prompt="" v:val="VT0(0.044132588265176):1"/>
						<v:ud v:nameU="TopRightOffset" v:prompt="" v:val="VT0(0.044132588265176):1"/>
						<v:ud v:nameU="BotLeftOffset" v:prompt="" v:val="VT0(0.044132588265176):1"/>
						<v:ud v:nameU="BotRightOffset" v:prompt="" v:val="VT0(0.044132588265176):1"/>
					</v:userDefs>
					<v:textBlock v:margins="rect(4,4,4,4)" v:tabSpace="42.5197"/>
					<v:textRect cx="15.8877" cy="266.236" width="31.78" height="10.9728"/>
					<path d="M3.18 271.72 L28.6 271.72 A3.17749 3.17749 -180 0 0 31.78 268.54 L31.78 263.93 A3.17749 3.17749 -180
								 0 0 28.6 260.75 L3.18 260.75 A3.17749 3.17749 -180 0 0 0 263.93 L0 268.54 A3.17749 3.17749 -180
								 0 0 3.18 271.72 Z" class="st1"/>
					<text x="4.81" y="269.24" class="st2" v:langID="2052"><v:paragraph v:horizAlign="1"/><v:tabList/>0110</text>				</g>
				<g id="shape151-36" v:mID="151" v:groupContext="shape" transform="translate(56.6929,-134.397)">
					<title>Rounded Rectangle.151</title>
					<desc>1101</desc>
					<v:userDefs>
						<v:ud v:nameU="CTypeTopLeftSnip" v:prompt="" v:val="VT0(0):5"/>
						<v:ud v:nameU="CTypeTopRightSnip" v:prompt="" v:val="VT0(0):5"/>
						<v:ud v:nameU="CTypeBotLeftSnip" v:prompt="" v:val="VT0(0):5"/>
						<v:ud v:nameU="CTypeBotRightSnip" v:prompt="" v:val="VT0(0):5"/>
						<v:ud v:nameU="CornerLockHoriz" v:prompt="" v:val="VT0(1):5"/>
						<v:ud v:nameU="CornerLockVert" v:prompt="" v:val="VT0(1):5"/>
						<v:ud v:nameU="CornerLockDiag" v:prompt="" v:val="VT0(0):5"/>
						<v:ud v:nameU="TopLeftOffset" v:prompt="" v:val="VT0(0.15748031496063):24"/>
						<v:ud v:nameU="TopRightOffset" v:prompt="" v:val="VT0(0.15748031496063):24"/>
						<v:ud v:nameU="BotLeftOffset" v:prompt="" v:val="VT0(0.15748031496063):24"/>
						<v:ud v:nameU="BotRightOffset" v:prompt="" v:val="VT0(0.15748031496063):24"/>
						<v:ud v:nameU="visVersion" v:prompt="" v:val="VT0(15):26"/>
						<v:ud v:nameU="TopLeftOffset" v:prompt="" v:val="VT0(0.044132588265176):1"/>
						<v:ud v:nameU="TopRightOffset" v:prompt="" v:val="VT0(0.044132588265176):1"/>
						<v:ud v:nameU="BotLeftOffset" v:prompt="" v:val="VT0(0.044132588265176):1"/>
						<v:ud v:nameU="BotRightOffset" v:prompt="" v:val="VT0(0.044132588265176):1"/>
					</v:userDefs>
					<v:textBlock v:margins="rect(4,4,4,4)" v:tabSpace="42.5197"/>
					<v:textRect cx="15.8877" cy="266.236" width="31.78" height="10.9728"/>
					<path d="M3.18 271.72 L28.6 271.72 A3.17749 3.17749 -180 0 0 31.78 268.54 L31.78 263.93 A3.17749 3.17749 -180
								 0 0 28.6 260.75 L3.18 260.75 A3.17749 3.17749 -180 0 0 0 263.93 L0 268.54 A3.17749 3.17749 -180
								 0 0 3.18 271.72 Z" class="st1"/>
					<text x="4.81" y="269.24" class="st2" v:langID="2052"><v:paragraph v:horizAlign="1"/><v:tabList/>1101</text>				</g>
				<g id="shape152-39" v:mID="152" v:groupContext="shape" transform="translate(113.386,-134.397)">
					<title>Rounded Rectangle.152</title>
					<desc>1011</desc>
					<v:userDefs>
						<v:ud v:nameU="CTypeTopLeftSnip" v:prompt="" v:val="VT0(0):5"/>
						<v:ud v:nameU="CTypeTopRightSnip" v:prompt="" v:val="VT0(0):5"/>
						<v:ud v:nameU="CTypeBotLeftSnip" v:prompt="" v:val="VT0(0):5"/>
						<v:ud v:nameU="CTypeBotRightSnip" v:prompt="" v:val="VT0(0):5"/>
						<v:ud v:nameU="CornerLockHoriz" v:prompt="" v:val="VT0(1):5"/>
						<v:ud v:nameU="CornerLockVert" v:prompt="" v:val="VT0(1):5"/>
						<v:ud v:nameU="CornerLockDiag" v:prompt="" v:val="VT0(0):5"/>
						<v:ud v:nameU="TopLeftOffset" v:prompt="" v:val="VT0(0.15748031496063):24"/>
						<v:ud v:nameU="TopRightOffset" v:prompt="" v:val="VT0(0.15748031496063):24"/>
						<v:ud v:nameU="BotLeftOffset" v:prompt="" v:val="VT0(0.15748031496063):24"/>
						<v:ud v:nameU="BotRightOffset" v:prompt="" v:val="VT0(0.15748031496063):24"/>
						<v:ud v:nameU="visVersion" v:prompt="" v:val="VT0(15):26"/>
						<v:ud v:nameU="TopLeftOffset" v:prompt="" v:val="VT0(0.044132588265176):1"/>
						<v:ud v:nameU="TopRightOffset" v:prompt="" v:val="VT0(0.044132588265176):1"/>
						<v:ud v:nameU="BotLeftOffset" v:prompt="" v:val="VT0(0.044132588265176):1"/>
						<v:ud v:nameU="BotRightOffset" v:prompt="" v:val="VT0(0.044132588265176):1"/>
					</v:userDefs>
					<v:textBlock v:margins="rect(4,4,4,4)" v:tabSpace="42.5197"/>
					<v:textRect cx="15.8877" cy="266.236" width="31.78" height="10.9728"/>
					<path d="M3.18 271.72 L28.6 271.72 A3.17749 3.17749 -180 0 0 31.78 268.54 L31.78 263.93 A3.17749 3.17749 -180
								 0 0 28.6 260.75 L3.18 260.75 A3.17749 3.17749 -180 0 0 0 263.93 L0 268.54 A3.17749 3.17749 -180
								 0 0 3.18 271.72 Z" class="st1"/>
					<text x="4.81" y="269.24" class="st2" v:langID="2052"><v:paragraph v:horizAlign="1"/><v:tabList/>1011</text>				</g>
				<g id="shape153-42" v:mID="153" v:groupContext="shape" transform="translate(56.6929,-156.342)">
					<title>Rounded Rectangle.153</title>
					<desc>1110</desc>
					<v:userDefs>
						<v:ud v:nameU="CTypeTopLeftSnip" v:prompt="" v:val="VT0(0):5"/>
						<v:ud v:nameU="CTypeTopRightSnip" v:prompt="" v:val="VT0(0):5"/>
						<v:ud v:nameU="CTypeBotLeftSnip" v:prompt="" v:val="VT0(0):5"/>
						<v:ud v:nameU="CTypeBotRightSnip" v:prompt="" v:val="VT0(0):5"/>
						<v:ud v:nameU="CornerLockHoriz" v:prompt="" v:val="VT0(1):5"/>
						<v:ud v:nameU="CornerLockVert" v:prompt="" v:val="VT0(1):5"/>
						<v:ud v:nameU="CornerLockDiag" v:prompt="" v:val="VT0(0):5"/>
						<v:ud v:nameU="TopLeftOffset" v:prompt="" v:val="VT0(0.15748031496063):24"/>
						<v:ud v:nameU="TopRightOffset" v:prompt="" v:val="VT0(0.15748031496063):24"/>
						<v:ud v:nameU="BotLeftOffset" v:prompt="" v:val="VT0(0.15748031496063):24"/>
						<v:ud v:nameU="BotRightOffset" v:prompt="" v:val="VT0(0.15748031496063):24"/>
						<v:ud v:nameU="visVersion" v:prompt="" v:val="VT0(15):26"/>
						<v:ud v:nameU="TopLeftOffset" v:prompt="" v:val="VT0(0.044132588265176):1"/>
						<v:ud v:nameU="TopRightOffset" v:prompt="" v:val="VT0(0.044132588265176):1"/>
						<v:ud v:nameU="BotLeftOffset" v:prompt="" v:val="VT0(0.044132588265176):1"/>
						<v:ud v:nameU="BotRightOffset" v:prompt="" v:val="VT0(0.044132588265176):1"/>
					</v:userDefs>
					<v:textBlock v:margins="rect(4,4,4,4)" v:tabSpace="42.5197"/>
					<v:textRect cx="15.8877" cy="266.236" width="31.78" height="10.9728"/>
					<path d="M3.18 271.72 L28.6 271.72 A3.17749 3.17749 -180 0 0 31.78 268.54 L31.78 263.93 A3.17749 3.17749 -180
								 0 0 28.6 260.75 L3.18 260.75 A3.17749 3.17749 -180 0 0 0 263.93 L0 268.54 A3.17749 3.17749 -180
								 0 0 3.18 271.72 Z" class="st1"/>
					<text x="4.81" y="269.24" class="st2" v:langID="2052"><v:paragraph v:horizAlign="1"/><v:tabList/>1110</text>				</g>
				<g id="shape154-45" v:mID="154" v:groupContext="shape" transform="translate(113.386,-156.342)">
					<title>Rounded Rectangle.154</title>
					<desc>0111</desc>
					<v:userDefs>
						<v:ud v:nameU="CTypeTopLeftSnip" v:prompt="" v:val="VT0(0):5"/>
						<v:ud v:nameU="CTypeTopRightSnip" v:prompt="" v:val="VT0(0):5"/>
						<v:ud v:nameU="CTypeBotLeftSnip" v:prompt="" v:val="VT0(0):5"/>
						<v:ud v:nameU="CTypeBotRightSnip" v:prompt="" v:val="VT0(0):5"/>
						<v:ud v:nameU="CornerLockHoriz" v:prompt="" v:val="VT0(1):5"/>
						<v:ud v:nameU="CornerLockVert" v:prompt="" v:val="VT0(1):5"/>
						<v:ud v:nameU="CornerLockDiag" v:prompt="" v:val="VT0(0):5"/>
						<v:ud v:nameU="TopLeftOffset" v:prompt="" v:val="VT0(0.15748031496063):24"/>
						<v:ud v:nameU="TopRightOffset" v:prompt="" v:val="VT0(0.15748031496063):24"/>
						<v:ud v:nameU="BotLeftOffset" v:prompt="" v:val="VT0(0.15748031496063):24"/>
						<v:ud v:nameU="BotRightOffset" v:prompt="" v:val="VT0(0.15748031496063):24"/>
						<v:ud v:nameU="visVersion" v:prompt="" v:val="VT0(15):26"/>
						<v:ud v:nameU="TopLeftOffset" v:prompt="" v:val="VT0(0.044132588265176):1"/>
						<v:ud v:nameU="TopRightOffset" v:prompt="" v:val="VT0(0.044132588265176):1"/>
						<v:ud v:nameU="BotLeftOffset" v:prompt="" v:val="VT0(0.044132588265176):1"/>
						<v:ud v:nameU="BotRightOffset" v:prompt="" v:val="VT0(0.044132588265176):1"/>
					</v:userDefs>
					<v:textBlock v:margins="rect(4,4,4,4)" v:tabSpace="42.5197"/>
					<v:textRect cx="15.8877" cy="266.236" width="31.78" height="10.9728"/>
					<path d="M3.18 271.72 L28.6 271.72 A3.17749 3.17749 -180 0 0 31.78 268.54 L31.78 263.93 A3.17749 3.17749 -180
								 0 0 28.6 260.75 L3.18 260.75 A3.17749 3.17749 -180 0 0 0 263.93 L0 268.54 A3.17749 3.17749 -180
								 0 0 3.18 271.72 Z" class="st1"/>
					<text x="4.81" y="269.24" class="st2" v:langID="2052"><v:paragraph v:horizAlign="1"/><v:tabList/>0111</text>				</g>
				<g id="shape155-48" v:mID="155" v:groupContext="shape" transform="translate(85.0394,-178.288)">
					<title>Rounded Rectangle.155</title>
					<desc>1111</desc>
					<v:userDefs>
						<v:ud v:nameU="CTypeTopLeftSnip" v:prompt="" v:val="VT0(0):5"/>
						<v:ud v:nameU="CTypeTopRightSnip" v:prompt="" v:val="VT0(0):5"/>
						<v:ud v:nameU="CTypeBotLeftSnip" v:prompt="" v:val="VT0(0):5"/>
						<v:ud v:nameU="CTypeBotRightSnip" v:prompt="" v:val="VT0(0):5"/>
						<v:ud v:nameU="CornerLockHoriz" v:prompt="" v:val="VT0(1):5"/>
						<v:ud v:nameU="CornerLockVert" v:prompt="" v:val="VT0(1):5"/>
						<v:ud v:nameU="CornerLockDiag" v:prompt="" v:val="VT0(0):5"/>
						<v:ud v:nameU="TopLeftOffset" v:prompt="" v:val="VT0(0.15748031496063):24"/>
						<v:ud v:nameU="TopRightOffset" v:prompt="" v:val="VT0(0.15748031496063):24"/>
						<v:ud v:nameU="BotLeftOffset" v:prompt="" v:val="VT0(0.15748031496063):24"/>
						<v:ud v:nameU="BotRightOffset" v:prompt="" v:val="VT0(0.15748031496063):24"/>
						<v:ud v:nameU="visVersion" v:prompt="" v:val="VT0(15):26"/>
						<v:ud v:nameU="TopLeftOffset" v:prompt="" v:val="VT0(0.044132588265176):1"/>
						<v:ud v:nameU="TopRightOffset" v:prompt="" v:val="VT0(0.044132588265176):1"/>
						<v:ud v:nameU="BotLeftOffset" v:prompt="" v:val="VT0(0.044132588265176):1"/>
						<v:ud v:nameU="BotRightOffset" v:prompt="" v:val="VT0(0.044132588265176):1"/>
					</v:userDefs>
					<v:textBlock v:margins="rect(4,4,4,4)" v:tabSpace="42.5197"/>
					<v:textRect cx="15.8877" cy="266.236" width="31.78" height="10.9728"/>
					<path d="M3.18 271.72 L28.6 271.72 A3.17749 3.17749 -180 0 0 31.78 268.54 L31.78 263.93 A3.17749 3.17749 -180
								 0 0 28.6 260.75 L3.18 260.75 A3.17749 3.17749 -180 0 0 0 263.93 L0 268.54 A3.17749 3.17749 -180
								 0 0 3.18 271.72 Z" class="st1"/>
					<text x="4.81" y="269.24" class="st2" v:langID="2052"><v:paragraph v:horizAlign="1"/><v:tabList/>1111</text>				</g>
			</g>
			<g id="group209-51" transform="translate(15.8877,0)" v:mID="209" v:groupContext="group">
				<title>Sheet.209</title>
				<g id="shape167-52" v:mID="167" v:groupContext="shape" transform="translate(99.9964,508.999) rotate(180)">
					<title>Sheet.167</title>
					<path d="M0 271.72 A20.4701 20.4701 0 1 1 33.87 265.57 L33.68 265.87" class="st3"/>
				</g>
				<g id="shape171-58" v:mID="171" v:groupContext="shape" transform="translate(70.0823,-221.845)">
					<title>Sheet.171</title>
					<path d="M0 271.72 A20.4701 20.4701 0 1 1 33.87 265.57 L33.68 265.87" class="st3"/>
				</g>
				<g id="shape176-63" v:mID="176" v:groupContext="shape" transform="translate(248.2,259.34) rotate(138.362)">
					<title>Sheet.176</title>
					<path d="M0 268.08 A12.8346 12.8346 -180 0 0 11.43 271.48 L11.75 271.31" class="st3"/>
				</g>
				<g id="shape179-68" v:mID="179" v:groupContext="shape" transform="translate(-64.7315,271.244) rotate(-138.362)">
					<title>Sheet.179</title>
					<path d="M-0 268.08 A12.8346 12.8346 -180 0 0 11.43 271.48 L11.75 271.31" class="st3"/>
				</g>
				<g id="shape180-73" v:mID="180" v:groupContext="shape" transform="translate(97.4981,344.703) rotate(180)">
					<title>Sheet.180</title>
					<path d="M0 268.32 A24.5418 24.5418 -180 0 0 18.13 271.06 L18.46 270.92" class="st3"/>
				</g>
				<g id="shape181-78" v:mID="181" v:groupContext="shape" transform="translate(72.5806,366.649) scale(1,-1)">
					<title>Sheet.181</title>
					<path d="M0 268.32 A24.5418 24.5418 -180 0 0 18.13 271.06 L18.46 270.92" class="st3"/>
				</g>
				<g id="shape182-83" v:mID="182" v:groupContext="shape" transform="translate(325.018,81.8651) rotate(90)">
					<title>Sheet.182</title>
					<path d="M-0 268.32 A10.8074 24.5418 -180 0 0 4.43 271.6 L4.75 271.44" class="st3"/>
				</g>
				<g id="shape183-88" v:mID="183" v:groupContext="shape" transform="translate(-154.939,92.8379) rotate(-90)">
					<title>Sheet.183</title>
					<path d="M-0 268.32 A10.8074 24.5418 -180 0 0 4.43 271.6 L4.75 271.44" class="st3"/>
				</g>
				<g id="shape184-93" v:mID="184" v:groupContext="shape"
						transform="translate(-64.8946,-96.7242) rotate(-41.6379) scale(-1,1)">
					<title>Sheet.184</title>
					<path d="M0 268.32 A17.6456 24.5418 -180 0 0 11.32 271.5 L11.65 271.35" class="st3"/>
				</g>
				<g id="shape185-98" v:mID="185" v:groupContext="shape"
						transform="translate(248.363,-84.8207) rotate(41.6379) scale(-1,1)">
					<title>Sheet.185</title>
					<path d="M0 268.32 A17.6456 24.5418 -180 0 0 11.32 271.5 L11.65 271.35" class="st3"/>
				</g>
				<g id="shape186-103" v:mID="186" v:groupContext="shape" transform="translate(263.089,226.673) rotate(124.064)">
					<title>Sheet.186</title>
					<path d="M0 268.32 A71.7526 24.5418 -180 0 0 65.64 269.6 L66 269.53" class="st3"/>
				</g>
				<g id="shape187-108" v:mID="187" v:groupContext="shape" transform="translate(-52.2047,287.023) rotate(-124.064)">
					<title>Sheet.187</title>
					<path d="M0 268.32 A71.7526 24.5418 -180 0 0 65.64 269.6 L66 269.53" class="st3"/>
				</g>
				<g id="shape188-113" v:mID="188" v:groupContext="shape" transform="translate(325.018,103.811) rotate(90)">
					<title>Sheet.188</title>
					<path d="M-0 268.32 A32.4222 24.5418 -180 0 0 25.97 270.64 L26.32 270.53" class="st3"/>
				</g>
				<g id="shape189-118" v:mID="189" v:groupContext="shape" transform="translate(-154.939,136.729) rotate(-90)">
					<title>Sheet.189</title>
					<path d="M-0 268.32 A32.4222 24.5418 -180 0 0 25.97 270.64 L26.32 270.53" class="st3"/>
				</g>
				<g id="shape190-123" v:mID="190" v:groupContext="shape" transform="translate(151.134,375.764) rotate(162.21)">
					<title>Sheet.190</title>
					<path d="M0 268.32 A56.0583 24.5418 -180 0 0 49.76 269.88 L50.12 269.8" class="st3"/>
				</g>
				<g id="shape191-128" v:mID="191" v:groupContext="shape" transform="translate(73.139,393.154) rotate(-162.21)">
					<title>Sheet.191</title>
					<path d="M0 268.32 A56.0583 24.5418 -180 0 0 49.76 269.88 L50.12 269.8" class="st3"/>
				</g>
				<g id="shape192-133" v:mID="192" v:groupContext="shape" transform="translate(71.6499,405.985) scale(1,-1)">
					<title>Sheet.192</title>
					<path d="M0 268.32 A26.3752 24.5418 -180 0 0 19.95 270.95 L20.28 270.82" class="st3"/>
				</g>
				<g id="shape193-138" v:mID="193" v:groupContext="shape" transform="translate(98.4288,-121.553) scale(-1,1)">
					<title>Sheet.193</title>
					<path d="M0 268.32 A26.3752 24.5418 -180 0 0 19.95 270.95 L20.28 270.82" class="st3"/>
				</g>
				<g id="shape194-143" v:mID="194" v:groupContext="shape" transform="translate(100.791,-107.455) rotate(18.6561)">
					<title>Sheet.194</title>
					<path d="M-0 268.32 A56.3379 24.5418 -180 0 0 50.05 269.87 L50.4 269.8" class="st3"/>
				</g>
				<g id="shape195-148" v:mID="195" v:groupContext="shape" transform="translate(15.0934,-89.1569) rotate(-18.6561)">
					<title>Sheet.195</title>
					<path d="M0 268.32 A56.3379 24.5418 -180 0 0 50.05 269.87 L50.4 269.8" class="st3"/>
				</g>
				<g id="shape196-153" v:mID="196" v:groupContext="shape" transform="translate(225.289,1.9521) rotate(57.0993)">
					<title>Sheet.196</title>
					<path d="M-0 268.32 A73.9896 24.5418 -180 0 0 67.91 269.56 L68.26 269.5" class="st3"/>
				</g>
				<g id="shape197-158" v:mID="197" v:groupContext="shape" transform="translate(-96.0155,65.0256) rotate(-57.0993)">
					<title>Sheet.197</title>
					<path d="M-0 268.32 A73.9896 24.5418 -180 0 0 67.91 269.56 L68.26 269.5" class="st3"/>
				</g>
				<g id="shape198-163" v:mID="198" v:groupContext="shape"
						transform="translate(242.195,376.31) rotate(-43.7357) scale(1,-1)">
					<title>Sheet.198</title>
					<path d="M-0 268.32 A18.2518 24.5418 -180 0 0 11.92 271.46 L12.24 271.31" class="st3"/>
				</g>
				<g id="shape199-168" v:mID="199" v:groupContext="shape"
						transform="translate(-85.5053,363.499) rotate(43.7357) scale(1,-1)">
					<title>Sheet.199</title>
					<path d="M-0 268.32 A18.2518 24.5418 -180 0 0 11.92 271.46 L12.24 271.31" class="st3"/>
				</g>
				<g id="shape200-173" v:mID="200" v:groupContext="shape" transform="translate(97.4981,-80.4026) scale(-1,1)">
					<title>Sheet.200</title>
					<path d="M-0 268.32 A24.5418 24.5418 -180 0 0 18.13 271.06 L18.46 270.92" class="st3"/>
				</g>
				<g id="shape201-178" v:mID="201" v:groupContext="shape" transform="translate(325.018,193.409) rotate(90)">
					<title>Sheet.201</title>
					<path d="M0 268.32 A11.7014 24.5418 -180 0 0 5.38 271.69 L5.7 271.53" class="st3"/>
				</g>
				<g id="shape202-183" v:mID="202" v:groupContext="shape" transform="translate(-154.939,205.289) rotate(-90)">
					<title>Sheet.202</title>
					<path d="M0 268.32 A11.7014 24.5418 -180 0 0 5.38 271.69 L5.7 271.53" class="st3"/>
				</g>
				<g id="shape203-188" v:mID="203" v:groupContext="shape" transform="translate(325.018,147.702) rotate(90)">
					<title>Sheet.203</title>
					<path d="M0 268.32 A34.2102 24.5418 -180 0 0 27.76 270.56 L28.11 270.45" class="st3"/>
				</g>
				<g id="shape204-193" v:mID="204" v:groupContext="shape" transform="translate(-154.939,182.436) rotate(-90)">
					<title>Sheet.204</title>
					<path d="M0 268.32 A34.2102 24.5418 -180 0 0 27.76 270.56 L28.11 270.45" class="st3"/>
				</g>
				<g id="shape205-198" v:mID="205" v:groupContext="shape" transform="translate(72.5806,-57.5493)">
					<title>Sheet.205</title>
					<path d="M-0 268.32 A24.5418 24.5418 -180 0 0 18.13 271.06 L18.46 270.92" class="st3"/>
				</g>
				<g id="shape206-203" v:mID="206" v:groupContext="shape" transform="translate(234.81,15.9105) rotate(41.6379)">
					<title>Sheet.206</title>
					<path d="M-0 268.08 A12.8346 12.8346 -180 0 0 11.43 271.48 L11.75 271.31" class="st3"/>
				</g>
				<g id="shape207-208" v:mID="207" v:groupContext="shape" transform="translate(-78.1209,27.814) rotate(-41.6379)">
					<title>Sheet.207</title>
					<path d="M0 268.08 A12.8346 12.8346 -180 0 0 11.43 271.48 L11.75 271.31" class="st3"/>
				</g>
			</g>
		</g>
	</g>
</svg>
