<?xml version="1.0" encoding="UTF-8" standalone="no"?>
<!DOCTYPE svg PUBLIC "-//W3C//DTD SVG 1.1//EN" "http://www.w3.org/Graphics/SVG/1.1/DTD/svg11.dtd">
<!-- Generated by Microsoft Visio, SVG Export figure-3.svg Page-1 -->
<svg xmlns="http://www.w3.org/2000/svg" xmlns:xlink="http://www.w3.org/1999/xlink" xmlns:ev="http://www.w3.org/2001/xml-events"
		xmlns:v="http://schemas.microsoft.com/visio/2003/SVGExtensions/" width="5.91475in" height="2.00974in"
		viewBox="0 0 425.862 144.702" xml:space="preserve" color-interpolation-filters="sRGB" class="st6">
	<v:documentProperties v:langID="1033" v:viewMarkup="false"/>

	<style type="text/css">
	<![CDATA[
		.st1 {fill:#000000;stroke:#ffffff;stroke-linecap:round;stroke-linejoin:round;stroke-width:6}
		.st2 {fill:#000000;font-family:Cambria Math;font-size:1.00001em}
		.st3 {stroke:#000000;stroke-linecap:round;stroke-linejoin:round;stroke-width:3}
		.st4 {fill:#ffffff;stroke:none;stroke-linecap:butt;stroke-width:7.2}
		.st5 {fill:#ffffff;stroke:none;stroke-linecap:butt}
		.st6 {fill:none;fill-rule:evenodd;font-size:12px;overflow:visible;stroke-linecap:square;stroke-miterlimit:3}
	]]>
	</style>

	<g v:mID="0" v:index="1" v:groupContext="foregroundPage">
		<title>Page-1</title>
		<v:pageProperties v:drawingScale="0.0393701" v:pageScale="0.0393701" v:drawingUnits="24" v:shadowOffsetX="8.50394"
				v:shadowOffsetY="-8.50394"/>
		<g id="group215-1" transform="translate(7.72205,-10.9348)" v:mID="215" v:groupContext="group">
			<title>Sheet.215</title>
			<g id="group87-2" transform="translate(144.992,-2.84217E-014)" v:mID="87" v:groupContext="group">
				<title>Sheet.87</title>
				<g id="shape88-3" v:mID="88" v:groupContext="shape" transform="translate(1.22902E-013,-111.359)">
					<title>Circle</title>
					<desc>4</desc>
					<v:userDefs>
						<v:ud v:nameU="visVersion" v:val="VT0(15):26"/>
					</v:userDefs>
					<v:textBlock v:margins="rect(4,4,4,4)" v:tabSpace="42.5197"/>
					<v:textRect cx="-7.44094" cy="132.328" width="0" height="9.27992"/>
					<path d="M0 138.52 A6.18661 6.18661 0 0 1 12.37 138.52 A6.18661 6.18661 0 1 1 0 138.52 Z" class="st1"/>
					<text x="-3.44" y="135.93" class="st2" v:langID="2052"><v:paragraph v:horizAlign="1"/><v:tabList/>4</text>				</g>
				<g id="shape89-6" v:mID="89" v:groupContext="shape" transform="translate(111.359,-111.359)">
					<title>Circle.2</title>
					<desc>3</desc>
					<v:userDefs>
						<v:ud v:nameU="visVersion" v:val="VT0(15):26"/>
					</v:userDefs>
					<v:textBlock v:margins="rect(4,4,4,4)" v:tabSpace="42.5197"/>
					<v:textRect cx="6.484" cy="132.328" width="0.42" height="9.27992"/>
					<path d="M0 138.52 A6.18661 6.18661 0 0 1 12.37 138.52 A6.18661 6.18661 0 1 1 0 138.52 Z" class="st1"/>
					<text x="10.28" y="135.93" class="st2" v:langID="2052"><v:paragraph v:horizAlign="1"/><v:tabList/>3</text>				</g>
				<g id="shape90-9" v:mID="90" v:groupContext="shape">
					<title>Circle.3</title>
					<desc>1</desc>
					<v:userDefs>
						<v:ud v:nameU="visVersion" v:val="VT0(15):26"/>
					</v:userDefs>
					<v:textBlock v:margins="rect(4,4,4,4)" v:tabSpace="42.5197"/>
					<v:textRect cx="-7.72205" cy="144.664" width="0" height="9.27992"/>
					<path d="M0 138.52 A6.18661 6.18661 0 0 1 12.37 138.52 A6.18661 6.18661 0 1 1 0 138.52 Z" class="st1"/>
					<text x="-3.72" y="148.26" class="st2" v:langID="2052"><v:paragraph v:horizAlign="1"/><v:tabList/>1</text>				</g>
				<g id="shape91-12" v:mID="91" v:groupContext="shape" transform="translate(111.359,0)">
					<title>Circle.4</title>
					<desc>2</desc>
					<v:userDefs>
						<v:ud v:nameU="visVersion" v:val="VT0(15):26"/>
					</v:userDefs>
					<v:textBlock v:margins="rect(4,4,4,4)" v:tabSpace="42.5197"/>
					<v:textRect cx="6.19966" cy="144.664" width="0.16" height="9.27992"/>
					<path d="M0 138.52 A6.18661 6.18661 0 0 1 12.37 138.52 A6.18661 6.18661 0 1 1 0 138.52 Z" class="st1"/>
					<text x="10.12" y="148.26" class="st2" v:langID="2052"><v:paragraph v:horizAlign="1"/><v:tabList/>2</text>				</g>
				<g id="shape92-15" v:mID="92" v:groupContext="shape" transform="translate(12.3732,-117.546)">
					<title>Sheet.92</title>
					<desc>1</desc>
					<v:textBlock v:margins="rect(4,4,4,4)" v:tabSpace="42.5197"/>
					<v:textRect cx="49.6166" cy="135.914" width="98.99" height="0"/>
					<path d="M0 144.7 L98.99 144.7" class="st3"/>
					<rect v:rectContext="textBkgnd" x="46.2943" y="128.714" width="6.64453" height="14.4001" class="st4"/>
					<text x="46.29" y="139.51" class="st2" v:langID="2052"><v:paragraph v:horizAlign="1"/><v:tabList/>1</text>				</g>
				<g id="shape93-20" v:mID="93" v:groupContext="shape" transform="translate(-138.515,132.328) rotate(-90)">
					<title>Sheet.93</title>
					<desc>3</desc>
					<v:textBlock v:margins="rect(4,4,4,4)" v:tabSpace="42.5197" v:verticalText="true"/>
					<v:textRect cx="49.4929" cy="130.954" width="98.99" height="0"/>
					<path d="M0 144.7 L98.99 144.7" class="st3"/>
					<rect v:rectContext="textBkgnd" x="42.293" y="134.954" width="14.4003" height="6.64453" class="st4"/>
					<text x="49.49" y="134.95" writing-mode="tb-rl" class="st2" v:langID="2052"><v:paragraph v:horizAlign="1"/><v:tabList/>3</text>				</g>
				<g id="shape94-25" v:mID="94" v:groupContext="shape" transform="translate(12.3732,-6.18661)">
					<title>Sheet.94</title>
					<desc>1</desc>
					<v:textBlock v:margins="rect(4,4,4,4)" v:tabSpace="42.5197"/>
					<v:textRect cx="49.8641" cy="154.623" width="98.99" height="0"/>
					<path d="M0 144.7 L98.99 144.7" class="st3"/>
					<rect v:rectContext="textBkgnd" x="46.5418" y="147.423" width="6.64453" height="14.4001" class="st4"/>
					<text x="46.54" y="158.22" class="st2" v:langID="2052"><v:paragraph v:horizAlign="1"/><v:tabList/>1</text>				</g>
				<g id="shape95-30" v:mID="95" v:groupContext="shape" transform="translate(-27.156,132.328) rotate(-90)">
					<title>Sheet.95</title>
					<desc>1</desc>
					<v:textBlock v:margins="rect(4,4,4,4)" v:tabSpace="42.5197" v:verticalText="true"/>
					<v:textRect cx="49.4929" cy="143.426" width="98.99" height="0"/>
					<path d="M0 144.7 L98.99 144.7" class="st3"/>
					<rect v:rectContext="textBkgnd" x="42.293" y="147.426" width="14.4003" height="6.64453" class="st4"/>
					<text x="49.49" y="147.43" writing-mode="tb-rl" class="st2" v:langID="2052"><v:paragraph v:horizAlign="1"/><v:tabList/>1</text>				</g>
				<g id="shape96-35" v:mID="96" v:groupContext="shape">
					<title>Sheet.96</title>
					<desc>wl=6</desc>
					<v:textBlock v:margins="rect(4,4,4,4)" v:tabSpace="42.5197"/>
					<v:textRect cx="61.8661" cy="82.8355" width="123.74" height="123.732"/>
					<text x="47.79" y="86.44" class="st2" v:langID="2052"><v:paragraph v:horizAlign="1"/><v:tabList/>wl=6</text>				</g>
			</g>
			<g id="group117-37" v:mID="117" v:groupContext="group">
				<title>Sheet.117</title>
				<g id="shape118-38" v:mID="118" v:groupContext="shape" transform="translate(1.22902E-013,-111.359)">
					<title>Circle</title>
					<desc>3</desc>
					<v:userDefs>
						<v:ud v:nameU="visVersion" v:val="VT0(15):26"/>
					</v:userDefs>
					<v:textBlock v:margins="rect(4,4,4,4)" v:tabSpace="42.5197"/>
					<v:textRect cx="-7.34402" cy="132.328" width="0.05" height="9.27992"/>
					<path d="M0 138.52 A6.18661 6.18661 0 1 1 12.37 138.52 A6.18661 6.18661 0 0 1 0 138.52 Z" class="st1"/>
					<text x="-3.37" y="135.93" class="st2" v:langID="2052"><v:paragraph v:horizAlign="1"/><v:tabList/>3</text>				</g>
				<g id="shape119-41" v:mID="119" v:groupContext="shape" transform="translate(111.359,-111.359)">
					<title>Circle.2</title>
					<desc>4</desc>
					<v:userDefs>
						<v:ud v:nameU="visVersion" v:val="VT0(15):26"/>
					</v:userDefs>
					<v:textBlock v:margins="rect(4,4,4,4)" v:tabSpace="42.5197"/>
					<v:textRect cx="6.12136" cy="132.328" width="0.06" height="9.27992"/>
					<path d="M0 138.52 A6.18661 6.18661 0 1 1 12.37 138.52 A6.18661 6.18661 0 0 1 0 138.52 Z" class="st1"/>
					<text x="10.09" y="135.93" class="st2" v:langID="2052"><v:paragraph v:horizAlign="1"/><v:tabList/>4</text>				</g>
				<g id="shape120-44" v:mID="120" v:groupContext="shape">
					<title>Circle.3</title>
					<desc>1</desc>
					<v:userDefs>
						<v:ud v:nameU="visVersion" v:val="VT0(15):26"/>
					</v:userDefs>
					<v:textBlock v:margins="rect(4,4,4,4)" v:tabSpace="42.5197"/>
					<v:textRect cx="-7.72205" cy="144.664" width="0" height="9.27992"/>
					<path d="M0 138.52 A6.18661 6.18661 0 1 1 12.37 138.52 A6.18661 6.18661 0 0 1 0 138.52 Z" class="st1"/>
					<text x="-3.72" y="148.26" class="st2" v:langID="2052"><v:paragraph v:horizAlign="1"/><v:tabList/>1</text>				</g>
				<g id="shape121-47" v:mID="121" v:groupContext="shape" transform="translate(111.359,0)">
					<title>Circle.4</title>
					<desc>2</desc>
					<v:userDefs>
						<v:ud v:nameU="visVersion" v:val="VT0(15):26"/>
					</v:userDefs>
					<v:textBlock v:margins="rect(4,4,4,4)" v:tabSpace="42.5197"/>
					<v:textRect cx="6.18785" cy="144.664" width="0.02" height="9.27992"/>
					<path d="M0 138.52 A6.18661 6.18661 0 1 1 12.37 138.52 A6.18661 6.18661 0 0 1 0 138.52 Z" class="st1"/>
					<text x="10.18" y="148.26" class="st2" v:langID="2052"><v:paragraph v:horizAlign="1"/><v:tabList/>2</text>				</g>
				<g id="shape122-50" v:mID="122" v:groupContext="shape" transform="translate(12.3732,-117.546)">
					<title>Sheet.122</title>
					<desc>1</desc>
					<v:textBlock v:margins="rect(4,4,4,4)" v:tabSpace="42.5197"/>
					<v:textRect cx="49.6166" cy="135.68" width="98.99" height="0"/>
					<path d="M0 144.7 L98.99 144.7" class="st3"/>
					<rect v:rectContext="textBkgnd" x="46.2943" y="128.48" width="6.64453" height="14.4001" class="st5"/>
					<text x="46.29" y="139.28" class="st2" v:langID="2052"><v:paragraph v:horizAlign="1"/><v:tabList/>1</text>				</g>
				<g id="shape123-55" v:mID="123" v:groupContext="shape" transform="translate(-138.515,132.328) rotate(-90)">
					<title>Sheet.123</title>
					<desc>2</desc>
					<v:textBlock v:margins="rect(4,4,4,4)" v:tabSpace="42.5197" v:verticalText="true"/>
					<v:textRect cx="49.4929" cy="130.954" width="98.99" height="0"/>
					<path d="M0 144.7 L98.99 144.7" class="st3"/>
					<rect v:rectContext="textBkgnd" x="42.293" y="134.954" width="14.4003" height="6.64453" class="st4"/>
					<text x="49.49" y="134.95" writing-mode="tb-rl" class="st2" v:langID="2052"><v:paragraph v:horizAlign="1"/><v:tabList/>2</text>				</g>
				<g id="shape124-60" v:mID="124" v:groupContext="shape" transform="translate(12.3732,-6.18661)">
					<title>Sheet.124</title>
					<desc>1</desc>
					<v:textBlock v:margins="rect(4,4,4,4)" v:tabSpace="42.5197"/>
					<v:textRect cx="49.8641" cy="154.623" width="98.99" height="0"/>
					<path d="M0 144.7 L98.99 144.7" class="st3"/>
					<rect v:rectContext="textBkgnd" x="46.5418" y="147.423" width="6.64453" height="14.4001" class="st4"/>
					<text x="46.54" y="158.22" class="st2" v:langID="2052"><v:paragraph v:horizAlign="1"/><v:tabList/>1</text>				</g>
				<g id="shape125-65" v:mID="125" v:groupContext="shape" transform="translate(-27.156,132.328) rotate(-90)">
					<title>Sheet.125</title>
					<desc>2</desc>
					<v:textBlock v:margins="rect(4,4,4,4)" v:tabSpace="42.5197" v:verticalText="true"/>
					<v:textRect cx="49.4929" cy="143.426" width="98.99" height="0"/>
					<path d="M0 144.7 L98.99 144.7" class="st3"/>
					<rect v:rectContext="textBkgnd" x="42.293" y="147.426" width="14.4003" height="6.64453" class="st4"/>
					<text x="49.49" y="147.43" writing-mode="tb-rl" class="st2" v:langID="2052"><v:paragraph v:horizAlign="1"/><v:tabList/>2</text>				</g>
				<g id="shape126-70" v:mID="126" v:groupContext="shape">
					<title>Sheet.126</title>
					<desc>wl=6</desc>
					<v:textBlock v:margins="rect(4,4,4,4)" v:tabSpace="42.5197"/>
					<v:textRect cx="61.8661" cy="82.8355" width="123.74" height="123.732"/>
					<text x="47.79" y="86.44" class="st2" v:langID="2052"><v:paragraph v:horizAlign="1"/><v:tabList/>wl=6</text>				</g>
			</g>
			<g id="group127-72" transform="translate(289.984,-3.97904E-013)" v:mID="127" v:groupContext="group">
				<title>Sheet.127</title>
				<g id="shape128-73" v:mID="128" v:groupContext="shape" transform="translate(1.23901E-013,-111.359)">
					<title>Circle</title>
					<desc>4</desc>
					<v:userDefs>
						<v:ud v:nameU="visVersion" v:val="VT0(15):26"/>
					</v:userDefs>
					<v:textBlock v:margins="rect(4,4,4,4)" v:tabSpace="42.5197"/>
					<v:textRect cx="-7.02948" cy="132.433" width="0.17" height="9.27992"/>
					<path d="M0 138.52 A6.18661 6.18661 0 0 1 12.37 138.52 A6.18661 6.18661 0 1 1 0 138.52 Z" class="st1"/>
					<text x="-3.11" y="136.03" class="st2" v:langID="2052"><v:paragraph v:horizAlign="1"/><v:tabList/>4</text>				</g>
				<g id="shape129-76" v:mID="129" v:groupContext="shape" transform="translate(111.359,-111.359)">
					<title>Circle.2</title>
					<desc>2</desc>
					<v:userDefs>
						<v:ud v:nameU="visVersion" v:val="VT0(15):26"/>
					</v:userDefs>
					<v:textBlock v:margins="rect(4,4,4,4)" v:tabSpace="42.5197"/>
					<v:textRect cx="6.28608" cy="132.328" width="0.27" height="9.27992"/>
					<path d="M0 138.52 A6.18661 6.18661 0 0 1 12.37 138.52 A6.18661 6.18661 0 1 1 0 138.52 Z" class="st1"/>
					<text x="10.15" y="135.93" class="st2" v:langID="2052"><v:paragraph v:horizAlign="1"/><v:tabList/>2</text>				</g>
				<g id="shape130-79" v:mID="130" v:groupContext="shape">
					<title>Circle.3</title>
					<desc>1</desc>
					<v:userDefs>
						<v:ud v:nameU="visVersion" v:val="VT0(15):26"/>
					</v:userDefs>
					<v:textBlock v:margins="rect(4,4,4,4)" v:tabSpace="42.5197"/>
					<v:textRect cx="-7.55787" cy="144.56" width="0.1" height="9.27992"/>
					<path d="M0 138.52 A6.18661 6.18661 0 0 1 12.37 138.52 A6.18661 6.18661 0 1 1 0 138.52 Z" class="st1"/>
					<text x="-3.6" y="148.16" class="st2" v:langID="2052"><v:paragraph v:horizAlign="1"/><v:tabList/>1</text>				</g>
				<g id="shape131-82" v:mID="131" v:groupContext="shape" transform="translate(111.359,0)">
					<title>Circle.4</title>
					<desc>3</desc>
					<v:userDefs>
						<v:ud v:nameU="visVersion" v:val="VT0(15):26"/>
					</v:userDefs>
					<v:textBlock v:margins="rect(4,4,4,4)" v:tabSpace="42.5197"/>
					<v:textRect cx="6.1506" cy="144.664" width="0.02" height="9.27992"/>
					<path d="M0 138.52 A6.18661 6.18661 0 0 1 12.37 138.52 A6.18661 6.18661 0 1 1 0 138.52 Z" class="st1"/>
					<text x="10.14" y="148.26" class="st2" v:langID="2052"><v:paragraph v:horizAlign="1"/><v:tabList/>3</text>				</g>
				<g id="shape132-85" v:mID="132" v:groupContext="shape" transform="translate(12.3732,-117.546)">
					<title>Sheet.132</title>
					<desc>2</desc>
					<v:textBlock v:margins="rect(4,4,4,4)" v:tabSpace="42.5197"/>
					<v:textRect cx="49.6166" cy="135.914" width="98.99" height="0"/>
					<path d="M0 144.7 L98.99 144.7" class="st3"/>
					<rect v:rectContext="textBkgnd" x="46.2943" y="128.714" width="6.64453" height="14.4001" class="st4"/>
					<text x="46.29" y="139.51" class="st2" v:langID="2052"><v:paragraph v:horizAlign="1"/><v:tabList/>2</text>				</g>
				<g id="shape133-90" v:mID="133" v:groupContext="shape" transform="translate(-138.515,132.328) rotate(-90)">
					<title>Sheet.133</title>
					<desc>3</desc>
					<v:textBlock v:margins="rect(4,4,4,4)" v:tabSpace="42.5197" v:verticalText="true"/>
					<v:textRect cx="49.4929" cy="130.954" width="98.99" height="0"/>
					<path d="M0 144.7 L98.99 144.7" class="st3"/>
					<rect v:rectContext="textBkgnd" x="42.293" y="134.954" width="14.4003" height="6.64453" class="st4"/>
					<text x="49.49" y="134.95" writing-mode="tb-rl" class="st2" v:langID="2052"><v:paragraph v:horizAlign="1"/><v:tabList/>3</text>				</g>
				<g id="shape134-95" v:mID="134" v:groupContext="shape" transform="translate(12.3732,-6.18661)">
					<title>Sheet.134</title>
					<desc>2</desc>
					<v:textBlock v:margins="rect(4,4,4,4)" v:tabSpace="42.5197"/>
					<v:textRect cx="49.8641" cy="154.623" width="98.99" height="0"/>
					<path d="M0 144.7 L98.99 144.7" class="st3"/>
					<rect v:rectContext="textBkgnd" x="46.5418" y="147.423" width="6.64453" height="14.4001" class="st4"/>
					<text x="46.54" y="158.22" class="st2" v:langID="2052"><v:paragraph v:horizAlign="1"/><v:tabList/>2</text>				</g>
				<g id="shape135-100" v:mID="135" v:groupContext="shape" transform="translate(-27.156,132.328) rotate(-90)">
					<title>Sheet.135</title>
					<desc>1</desc>
					<v:textBlock v:margins="rect(4,4,4,4)" v:tabSpace="42.5197" v:verticalText="true"/>
					<v:textRect cx="49.4929" cy="143.426" width="98.99" height="0"/>
					<path d="M0 144.7 L98.99 144.7" class="st3"/>
					<rect v:rectContext="textBkgnd" x="42.293" y="147.426" width="14.4003" height="6.64453" class="st4"/>
					<text x="49.49" y="147.43" writing-mode="tb-rl" class="st2" v:langID="2052"><v:paragraph v:horizAlign="1"/><v:tabList/>1</text>				</g>
				<g id="shape136-105" v:mID="136" v:groupContext="shape">
					<title>Sheet.136</title>
					<desc>wl=8</desc>
					<v:textBlock v:margins="rect(4,4,4,4)" v:tabSpace="42.5197"/>
					<v:textRect cx="61.8661" cy="82.8355" width="123.74" height="123.732"/>
					<text x="47.79" y="86.44" class="st2" v:langID="2052"><v:paragraph v:horizAlign="1"/><v:tabList/>wl=8</text>				</g>
			</g>
		</g>
	</g>
</svg>
