<?xml version="1.0" encoding="UTF-8" standalone="no"?>
<!DOCTYPE svg PUBLIC "-//W3C//DTD SVG 1.1//EN" "http://www.w3.org/Graphics/SVG/1.1/DTD/svg11.dtd">
<!-- Generated by Microsoft Visio, SVG Export Drawing.svg Page-1 -->
<svg xmlns="http://www.w3.org/2000/svg" xmlns:xlink="http://www.w3.org/1999/xlink" xmlns:ev="http://www.w3.org/2001/xml-events"
		xmlns:v="http://schemas.microsoft.com/visio/2003/SVGExtensions/" width="2.16225in" height="2.15374in"
		viewBox="0 0 155.682 155.069" xml:space="preserve" color-interpolation-filters="sRGB" class="st4">
	<v:documentProperties v:langID="1033" v:viewMarkup="false"/>

	<style type="text/css">
	<![CDATA[
		.st1 {fill:#000000;stroke:#feffff;stroke-width:6}
		.st2 {fill:#000000;font-family:Cambria Math;font-size:1.00001em}
		.st3 {stroke:#000000;stroke-linecap:round;stroke-linejoin:round;stroke-width:3}
		.st4 {fill:none;fill-rule:evenodd;font-size:12px;overflow:visible;stroke-linecap:square;stroke-miterlimit:3}
	]]>
	</style>

	<g v:mID="0" v:index="1" v:groupContext="foregroundPage">
		<title>Page-1</title>
		<v:pageProperties v:drawingScale="0.0393701" v:pageScale="0.0393701" v:drawingUnits="24" v:shadowOffsetX="8.50394"
				v:shadowOffsetY="-8.50394"/>
		<g id="group38-1" transform="translate(7.08661,-6.13712)" v:mID="38" v:groupContext="group">
			<title>Sheet.38</title>
			<g id="shape1-2" v:mID="1" v:groupContext="shape" transform="translate(3.19744E-014,-127.559)">
				<title>Circle</title>
				<desc>3</desc>
				<v:userDefs>
					<v:ud v:nameU="visVersion" v:val="VT0(15):26"/>
				</v:userDefs>
				<v:textBlock v:margins="rect(4,4,4,4)" v:tabSpace="42.5197"/>
				<v:textRect cx="2.498E-014" cy="140.896" width="12.41" height="10.6299"/>
				<path d="M0 147.98 A7.08661 7.08661 0 1 1 14.17 147.98 A7.08661 7.08661 0 0 1 0 147.98 Z" class="st1"/>
				<text x="-2.2" y="144.5" class="st2" v:langID="2052"><v:paragraph v:horizAlign="1"/><v:tabList/>3</text>			</g>
			<g id="shape2-5" v:mID="2" v:groupContext="shape" transform="translate(127.559,-127.559)">
				<title>Circle.2</title>
				<desc>2</desc>
				<v:userDefs>
					<v:ud v:nameU="visVersion" v:val="VT0(15):26"/>
				</v:userDefs>
				<v:textBlock v:margins="rect(4,4,4,4)" v:tabSpace="42.5197"/>
				<v:textRect cx="14.5462" cy="140.896" width="12.41" height="10.6299"/>
				<path d="M0 147.98 A7.08661 7.08661 0 0 1 14.17 147.98 A7.08661 7.08661 0 1 1 0 147.98 Z" class="st1"/>
				<text x="12.35" y="144.5" class="st2" v:langID="2052"><v:paragraph v:horizAlign="1"/><v:tabList/>2</text>			</g>
			<g id="shape3-8" v:mID="3" v:groupContext="shape">
				<title>Circle.3</title>
				<desc>0</desc>
				<v:userDefs>
					<v:ud v:nameU="visVersion" v:val="VT0(15):26"/>
				</v:userDefs>
				<v:textBlock v:margins="rect(4,4,4,4)" v:tabSpace="42.5197"/>
				<v:textRect cx="-0.885827" cy="154.006" width="12.41" height="10.6299"/>
				<path d="M0 147.98 A7.08661 7.08661 0 0 1 14.17 147.98 A7.08661 7.08661 0 1 1 0 147.98 Z" class="st1"/>
				<text x="-3.09" y="157.61" class="st2" v:langID="2052"><v:paragraph v:horizAlign="1"/><v:tabList/>0</text>			</g>
			<g id="shape4-11" v:mID="4" v:groupContext="shape" transform="translate(127.559,2.84217E-014)">
				<title>Circle.4</title>
				<desc>1</desc>
				<v:userDefs>
					<v:ud v:nameU="visVersion" v:val="VT0(15):26"/>
				</v:userDefs>
				<v:textBlock v:margins="rect(4,4,4,4)" v:tabSpace="42.5197"/>
				<v:textRect cx="14.8353" cy="154.006" width="12.41" height="10.6299"/>
				<path d="M0 147.98 A7.08661 7.08661 0 0 1 14.17 147.98 A7.08661 7.08661 0 1 1 0 147.98 Z" class="st1"/>
				<text x="12.63" y="157.61" class="st2" v:langID="2052"><v:paragraph v:horizAlign="1"/><v:tabList/>1</text>			</g>
			<g id="shape7-14" v:mID="7" v:groupContext="shape" transform="translate(14.1732,-134.646)">
				<title>Sheet.7</title>
				<path d="M0 155.07 L113.39 155.07" class="st3"/>
			</g>
			<g id="shape10-17" v:mID="10" v:groupContext="shape" transform="translate(162.156,27.5103) rotate(90)">
				<title>Sheet.10</title>
				<path d="M0 155.07 L113.39 155.07" class="st3"/>
			</g>
			<g id="shape11-20" v:mID="11" v:groupContext="shape" transform="translate(14.1732,-7.08661)">
				<title>Sheet.11</title>
				<path d="M0 155.07 L113.39 155.07" class="st3"/>
			</g>
			<g id="shape12-23" v:mID="12" v:groupContext="shape" transform="translate(289.715,27.5103) rotate(90)">
				<title>Sheet.12</title>
				<path d="M0 155.07 L113.39 155.07" class="st3"/>
			</g>
		</g>
	</g>
</svg>
