<?xml version="1.0" encoding="UTF-8" standalone="no"?>
<!DOCTYPE svg PUBLIC "-//W3C//DTD SVG 1.1//EN" "http://www.w3.org/Graphics/SVG/1.1/DTD/svg11.dtd">
<!-- Generated by Microsoft Visio, SVG Export figure-3.svg Page-1 -->
<svg xmlns="http://www.w3.org/2000/svg" xmlns:xlink="http://www.w3.org/1999/xlink" xmlns:ev="http://www.w3.org/2001/xml-events"
		width="5.92604in" height="2.00974in" viewBox="0 0 426.675 144.702" xml:space="preserve" color-interpolation-filters="sRGB"
		class="st7">
	<style type="text/css">
	<![CDATA[
		.st1 {fill:#000000;stroke:#ffffff;stroke-linecap:round;stroke-linejoin:round;stroke-width:6}
		.st2 {fill:#000000;font-family:Cambria Math;font-size:1.00001em}
		.st3 {stroke:#000000;stroke-linecap:round;stroke-linejoin:round;stroke-width:3}
		.st4 {fill:#ffffff;stroke:none;stroke-linecap:butt;stroke-width:7.2}
		.st5 {fill:none;stroke:none;stroke-linecap:round;stroke-linejoin:round;stroke-width:0.75}
		.st6 {fill:#000000;font-family:Times New Roman;font-size:1.00001em}
		.st7 {fill:none;fill-rule:evenodd;font-size:12px;overflow:visible;stroke-linecap:square;stroke-miterlimit:3}
	]]>
	</style>

	<g>
		<title>Page-1</title>
		<g id="group215-1" transform="translate(7.72205,-10.9348)">
			<title>Sheet.215</title>
			<g id="group87-2" transform="translate(144.992,-2.84217E-014)">
				<title>Sheet.87</title>
				<g id="group282-3" transform="translate(-6.70394,0)">
					<title>Sheet.282</title>
					<g id="shape88-4" transform="translate(6.70394,-111.359)">
						<title>Circle</title>
						<desc>4</desc>
						<path d="M0 138.52 A6.18661 6.18661 0 0 1 12.37 138.52 A6.18661 6.18661 0 1 1 0 138.52 Z" class="st1"/>
						<text x="-3.44" y="135.93" class="st2">4</text>					</g>
					<g id="shape89-7" transform="translate(118.063,-111.359)">
						<title>Circle.2</title>
						<desc>3</desc>
						<path d="M0 138.52 A6.18661 6.18661 0 0 1 12.37 138.52 A6.18661 6.18661 0 1 1 0 138.52 Z" class="st1"/>
						<text x="10.28" y="135.93" class="st2">3</text>					</g>
					<g id="shape90-10" transform="translate(6.70394,0)">
						<title>Circle.3</title>
						<desc>1</desc>
						<path d="M0 138.52 A6.18661 6.18661 0 0 1 12.37 138.52 A6.18661 6.18661 0 1 1 0 138.52 Z" class="st1"/>
						<text x="-3.72" y="148.26" class="st2">1</text>					</g>
					<g id="shape91-13" transform="translate(118.063,0)">
						<title>Circle.4</title>
						<desc>2</desc>
						<path d="M0 138.52 A6.18661 6.18661 0 0 1 12.37 138.52 A6.18661 6.18661 0 1 1 0 138.52 Z" class="st1"/>
						<text x="10.12" y="148.26" class="st2">2</text>					</g>
					<g id="shape92-16" transform="translate(19.0772,-117.546)">
						<title>Sheet.92</title>
						<desc>1</desc>
						<path d="M0 144.7 L98.99 144.7" class="st3"/>
						<rect x="46.2943" y="128.714" width="6.64453" height="14.4001" class="st4"/>
						<text x="46.29" y="139.51" class="st2">1</text>					</g>
					<g id="shape93-21" transform="translate(-131.811,132.328) rotate(-90)">
						<title>Sheet.93</title>
						<path d="M0 144.7 L98.99 144.7" class="st3"/>
					</g>
					<g id="shape94-24" transform="translate(19.0772,-6.18661)">
						<title>Sheet.94</title>
						<desc>1</desc>
						<path d="M0 144.7 L98.99 144.7" class="st3"/>
						<rect x="46.5418" y="147.423" width="6.64453" height="14.4001" class="st4"/>
						<text x="46.54" y="158.22" class="st2">1</text>					</g>
					<g id="shape95-29" transform="translate(-20.452,132.328) rotate(-90)">
						<title>Sheet.95</title>
						<path d="M0 144.7 L98.99 144.7" class="st3"/>
					</g>
					<g id="shape96-32" transform="translate(6.70394,0)">
						<title>Sheet.96</title>
						<desc>wl=6</desc>
						<text x="47.79" y="86.44" class="st2">wl=6</text>					</g>
					<g id="shape280-34" transform="translate(3.9968E-015,-51.0236)">
						<title>Sheet.280</title>
						<desc>3</desc>
						<rect x="0" y="124.702" width="12.3732" height="20" class="st5"/>
						<text x="4" y="138.3" class="st6">3</text>					</g>
					<g id="shape281-37" transform="translate(122.924,-51.0236)">
						<title>Sheet.281</title>
						<desc>1</desc>
						<rect x="0" y="124.702" width="12.3732" height="20" class="st5"/>
						<text x="4" y="138.3" class="st6">1</text>					</g>
				</g>
			</g>
			<g id="group117-40">
				<title>Sheet.117</title>
				<g id="shape118-41" transform="translate(1.22902E-013,-111.359)">
					<title>Circle</title>
					<desc>3</desc>
					<path d="M0 138.52 A6.18661 6.18661 0 1 1 12.37 138.52 A6.18661 6.18661 0 0 1 0 138.52 Z" class="st1"/>
					<text x="-3.37" y="135.93" class="st2">3</text>				</g>
				<g id="shape119-44" transform="translate(111.359,-111.359)">
					<title>Circle.2</title>
					<desc>4</desc>
					<path d="M0 138.52 A6.18661 6.18661 0 1 1 12.37 138.52 A6.18661 6.18661 0 0 1 0 138.52 Z" class="st1"/>
					<text x="10.09" y="135.93" class="st2">4</text>				</g>
				<g id="shape120-47">
					<title>Circle.3</title>
					<desc>1</desc>
					<path d="M0 138.52 A6.18661 6.18661 0 1 1 12.37 138.52 A6.18661 6.18661 0 0 1 0 138.52 Z" class="st1"/>
					<text x="-3.72" y="148.26" class="st2">1</text>				</g>
				<g id="shape121-50" transform="translate(111.359,0)">
					<title>Circle.4</title>
					<desc>2</desc>
					<path d="M0 138.52 A6.18661 6.18661 0 1 1 12.37 138.52 A6.18661 6.18661 0 0 1 0 138.52 Z" class="st1"/>
					<text x="10.18" y="148.26" class="st2">2</text>				</g>
				<g id="shape122-53" transform="translate(12.3732,-117.546)">
					<title>Sheet.122</title>
					<desc>1</desc>
					<path d="M0 144.7 L98.99 144.7" class="st3"/>
					<rect x="46.2943" y="128.48" width="6.64453" height="14.4001" class="st4"/>
					<text x="46.29" y="139.28" class="st2">1</text>				</g>
				<g id="shape123-58" transform="translate(-138.515,132.328) rotate(-90)">
					<title>Sheet.123</title>
					<path d="M0 144.7 L98.99 144.7" class="st3"/>
				</g>
				<g id="shape124-61" transform="translate(12.3732,-6.18661)">
					<title>Sheet.124</title>
					<desc>1</desc>
					<path d="M0 144.7 L98.99 144.7" class="st3"/>
					<rect x="46.5418" y="147.423" width="6.64453" height="14.4001" class="st4"/>
					<text x="46.54" y="158.22" class="st2">1</text>				</g>
				<g id="shape125-66" transform="translate(-27.156,132.328) rotate(-90)">
					<title>Sheet.125</title>
					<path d="M0 144.7 L98.99 144.7" class="st3"/>
				</g>
				<g id="shape126-69">
					<title>Sheet.126</title>
					<desc>wl=6</desc>
					<text x="47.79" y="86.44" class="st2">wl=6</text>				</g>
				<g id="shape275-71" transform="translate(-6.70394,-52.3622)">
					<title>Sheet.275</title>
					<desc>2</desc>
					<rect x="0" y="124.702" width="12.3732" height="20" class="st5"/>
					<text x="4" y="138.3" class="st6">2</text>				</g>
				<g id="shape277-74" transform="translate(116.22,-52.3622)">
					<title>Sheet.277</title>
					<desc>2</desc>
					<rect x="0" y="124.702" width="12.3732" height="20" class="st5"/>
					<text x="4" y="138.3" class="st6">2</text>				</g>
			</g>
			<g id="group127-77" transform="translate(289.984,-3.97904E-013)">
				<title>Sheet.127</title>
				<g id="group285-78" transform="translate(-6.70394,0)">
					<title>Sheet.285</title>
					<g id="shape128-79" transform="translate(6.70394,-111.359)">
						<title>Circle</title>
						<desc>4</desc>
						<path d="M0 138.52 A6.18661 6.18661 0 0 1 12.37 138.52 A6.18661 6.18661 0 1 1 0 138.52 Z" class="st1"/>
						<text x="-3.11" y="136.03" class="st2">4</text>					</g>
					<g id="shape129-82" transform="translate(118.063,-111.359)">
						<title>Circle.2</title>
						<desc>2</desc>
						<path d="M0 138.52 A6.18661 6.18661 0 0 1 12.37 138.52 A6.18661 6.18661 0 1 1 0 138.52 Z" class="st1"/>
						<text x="10.15" y="135.93" class="st2">2</text>					</g>
					<g id="shape130-85" transform="translate(6.70394,0)">
						<title>Circle.3</title>
						<desc>1</desc>
						<path d="M0 138.52 A6.18661 6.18661 0 0 1 12.37 138.52 A6.18661 6.18661 0 1 1 0 138.52 Z" class="st1"/>
						<text x="-3.6" y="148.16" class="st2">1</text>					</g>
					<g id="shape131-88" transform="translate(118.063,0)">
						<title>Circle.4</title>
						<desc>3</desc>
						<path d="M0 138.52 A6.18661 6.18661 0 0 1 12.37 138.52 A6.18661 6.18661 0 1 1 0 138.52 Z" class="st1"/>
						<text x="10.14" y="148.26" class="st2">3</text>					</g>
					<g id="shape132-91" transform="translate(19.0772,-117.546)">
						<title>Sheet.132</title>
						<desc>2</desc>
						<path d="M0 144.7 L98.99 144.7" class="st3"/>
						<rect x="46.2943" y="128.714" width="6.64453" height="14.4001" class="st4"/>
						<text x="46.29" y="139.51" class="st2">2</text>					</g>
					<g id="shape133-96" transform="translate(-131.811,132.328) rotate(-90)">
						<title>Sheet.133</title>
						<path d="M0 144.7 L98.99 144.7" class="st3"/>
					</g>
					<g id="shape134-99" transform="translate(19.0772,-6.18661)">
						<title>Sheet.134</title>
						<desc>2</desc>
						<path d="M0 144.7 L98.99 144.7" class="st3"/>
						<rect x="46.5418" y="147.423" width="6.64453" height="14.4001" class="st4"/>
						<text x="46.54" y="158.22" class="st2">2</text>					</g>
					<g id="shape135-104" transform="translate(-20.452,132.328) rotate(-90)">
						<title>Sheet.135</title>
						<path d="M0 144.7 L98.99 144.7" class="st3"/>
					</g>
					<g id="shape136-107" transform="translate(6.70394,0)">
						<title>Sheet.136</title>
						<desc>wl=8</desc>
						<text x="47.79" y="86.44" class="st2">wl=8</text>					</g>
					<g id="shape283-109" transform="translate(-3.9968E-015,-51.0236)">
						<title>Sheet.283</title>
						<desc>3</desc>
						<rect x="0" y="124.702" width="12.3732" height="20" class="st5"/>
						<text x="4" y="138.3" class="st6">3</text>					</g>
					<g id="shape284-112" transform="translate(122.924,-51.0236)">
						<title>Sheet.284</title>
						<desc>1</desc>
						<rect x="0" y="124.702" width="12.3732" height="20" class="st5"/>
						<text x="4" y="138.3" class="st6">1</text>					</g>
				</g>
			</g>
		</g>
	</g>
</svg>
