<?xml version="1.0" encoding="UTF-8" standalone="no"?>
<!DOCTYPE svg PUBLIC "-//W3C//DTD SVG 1.1//EN" "http://www.w3.org/Graphics/SVG/1.1/DTD/svg11.dtd">
<!-- Generated by Microsoft Visio, SVG Export figure-4-2.svg Page-1 -->
<svg xmlns="http://www.w3.org/2000/svg" xmlns:xlink="http://www.w3.org/1999/xlink" xmlns:ev="http://www.w3.org/2001/xml-events"
		width="4.10856in" height="2.1166in" viewBox="0 0 295.816 152.395" xml:space="preserve" color-interpolation-filters="sRGB"
		class="st8">
	<style type="text/css">
	<![CDATA[
		.st1 {fill:#000000;stroke:#ffffff;stroke-linecap:round;stroke-linejoin:round;stroke-width:6}
		.st2 {fill:#000000;font-family:Cambria Math;font-size:1.00001em}
		.st3 {fill:#000000;font-family:Cambria Math;font-size:0.833336em}
		.st4 {stroke:#000000;stroke-linecap:round;stroke-linejoin:round;stroke-width:3}
		.st5 {stroke:#000000;stroke-dasharray:3,6;stroke-linecap:round;stroke-linejoin:round;stroke-width:3}
		.st6 {fill:#000000;stroke:#000000;stroke-linecap:round;stroke-linejoin:round;stroke-width:0.24}
		.st7 {fill:#ffffff;stroke:#000000;stroke-linecap:round;stroke-linejoin:round;stroke-width:1}
		.st8 {fill:none;fill-rule:evenodd;font-size:12px;overflow:visible;stroke-linecap:square;stroke-miterlimit:3}
	]]>
	</style>

	<g>
		<title>Page-1</title>
		<g id="group618-1" transform="translate(9.53031,-1.5)">
			<title>Sheet.618</title>
			<g id="group590-2" transform="translate(-9.67226E-013,-13.3961)">
				<title>Sheet.590</title>
				<g id="shape591-3" transform="translate(1.22902E-013,-111.359)">
					<title>Circle</title>
					<desc>1</desc>
					<path d="M0 146.21 A6.18661 6.18661 0 1 1 12.37 146.21 A6.18661 6.18661 0 0 1 0 146.21 Z" class="st1"/>
					<text x="2.92" y="141.7" class="st2">1</text>				</g>
				<g id="shape592-6" transform="translate(111.359,-111.359)">
					<title>Circle.2</title>
					<desc>2</desc>
					<path d="M0 146.21 A6.18661 6.18661 0 1 1 12.37 146.21 A6.18661 6.18661 0 0 1 0 146.21 Z" class="st1"/>
					<text x="3.51" y="141.1" class="st3">2</text>				</g>
				<g id="shape593-9">
					<title>Circle.3</title>
					<desc>0</desc>
					<path d="M0 146.21 A6.18661 6.18661 0 1 1 12.37 146.21 A6.18661 6.18661 0 0 1 0 146.21 Z" class="st1"/>
					<text x="2.35" y="158.93" class="st2">0</text>				</g>
				<g id="shape594-12" transform="translate(111.359,0)">
					<title>Circle.4</title>
					<desc>3</desc>
					<path d="M0 146.21 A6.18661 6.18661 0 1 1 12.37 146.21 A6.18661 6.18661 0 0 1 0 146.21 Z" class="st1"/>
					<text x="2.96" y="158.93" class="st2">3</text>				</g>
				<g id="shape595-15" transform="translate(12.3732,-117.546)">
					<title>Sheet.595</title>
					<path d="M0 152.39 L98.99 152.39" class="st4"/>
				</g>
				<g id="shape596-18" transform="translate(-146.208,140.022) rotate(-90)">
					<title>Sheet.596</title>
					<path d="M0 152.39 L98.99 152.39" class="st4"/>
				</g>
				<g id="shape597-21" transform="translate(12.3732,-6.18661)">
					<title>Sheet.597</title>
					<path d="M0 152.39 L98.99 152.39" class="st4"/>
				</g>
				<g id="shape598-24" transform="translate(-34.8493,140.022) rotate(-90)">
					<title>Sheet.598</title>
					<path d="M0 152.39 L98.99 152.39" class="st4"/>
				</g>
			</g>
			<g id="group599-27" transform="translate(157.309,-13.3961)">
				<title>Sheet.599</title>
				<g id="shape600-28" transform="translate(1.22902E-013,-111.359)">
					<title>Circle</title>
					<desc>2</desc>
					<path d="M0 146.21 A6.18661 6.18661 0 1 1 12.37 146.21 A6.18661 6.18661 0 0 1 0 146.21 Z" class="st1"/>
					<text x="3.47" y="141.1" class="st3">2</text>				</g>
				<g id="shape601-31" transform="translate(111.359,-111.359)">
					<title>Circle.2</title>
					<desc>1</desc>
					<path d="M0 146.21 A6.18661 6.18661 0 1 1 12.37 146.21 A6.18661 6.18661 0 0 1 0 146.21 Z" class="st1"/>
					<text x="3.51" y="141.1" class="st3">1</text>				</g>
				<g id="shape602-34">
					<title>Circle.3</title>
					<desc>3</desc>
					<path d="M0 146.21 A6.18661 6.18661 0 1 1 12.37 146.21 A6.18661 6.18661 0 0 1 0 146.21 Z" class="st1"/>
					<text x="2.35" y="158.93" class="st2">3</text>				</g>
				<g id="shape603-37" transform="translate(111.359,0)">
					<title>Circle.4</title>
					<desc>0</desc>
					<path d="M0 146.21 A6.18661 6.18661 0 1 1 12.37 146.21 A6.18661 6.18661 0 0 1 0 146.21 Z" class="st1"/>
					<text x="2.96" y="158.93" class="st2">0</text>				</g>
				<g id="shape604-40" transform="translate(12.3732,-117.546)">
					<title>Sheet.604</title>
					<path d="M0 152.39 L98.99 152.39" class="st4"/>
				</g>
				<g id="shape605-43" transform="translate(-146.208,140.022) rotate(-90)">
					<title>Sheet.605</title>
					<path d="M0 152.39 L98.99 152.39" class="st4"/>
				</g>
				<g id="shape606-46" transform="translate(12.3732,-6.18661)">
					<title>Sheet.606</title>
					<path d="M0 152.39 L98.99 152.39" class="st4"/>
				</g>
				<g id="shape607-49" transform="translate(-34.8493,140.022) rotate(-90)">
					<title>Sheet.607</title>
					<path d="M0 152.39 L98.99 152.39" class="st4"/>
				</g>
			</g>
			<g id="shape608-52" transform="translate(214.345,3) rotate(90)">
				<title>Sheet.608</title>
				<path d="M0 152.39 L149.39 152.39" class="st5"/>
			</g>
			<g id="group613-55" transform="translate(42.0236,-55.4197)">
				<title>Curved Right Arrow</title>
				<g id="shape614-56">
					<title>Sheet.614</title>
					<path d="M39.69 112.71 L39.69 117.25 A39.6792 13.746 -180 0 0 -0 130.99 L0 126.46 A39.6792 13.746 0 0 1 39.69
								 112.71 Z" class="st6"/>
				</g>
				<g id="shape613-58">
					<path d="M39.69 142.47 L25.51 132.55 L25.51 140.21 A25.508 13.746 0 0 1 0 126.46 L0 130.99 A25.508 13.746 -180
								 0 0 25.51 144.74 L25.51 152.39 L39.69 142.47 Z" class="st6"/>
				</g>
			</g>
			<g id="shape617-60" transform="translate(153.853,229.051) rotate(180)">
				<title>Simple Arrow.617</title>
				<path d="M0 152.39 L11.34 138.22 L11.34 145.31 L23.87 145.31 L23.87 152.39 L23.87 159.48 L11.34 159.48 L11.34 166.57
							 L0 152.39 Z" class="st7"/>
			</g>
		</g>
	</g>
</svg>
