<?xml version="1.0" encoding="UTF-8" standalone="no"?>
<!DOCTYPE svg PUBLIC "-//W3C//DTD SVG 1.1//EN" "http://www.w3.org/Graphics/SVG/1.1/DTD/svg11.dtd">
<!-- Generated by Microsoft Visio, SVG Export figure-3.svg Page-1 -->
<svg xmlns="http://www.w3.org/2000/svg" xmlns:xlink="http://www.w3.org/1999/xlink" xmlns:ev="http://www.w3.org/2001/xml-events"
		width="2.16225in" height="2.15374in" viewBox="0 0 155.682 155.069" xml:space="preserve" color-interpolation-filters="sRGB"
		class="st4">
	<style type="text/css">
	<![CDATA[
		.st1 {fill:#000000;stroke:#feffff;stroke-width:6}
		.st2 {fill:#000000;font-family:Cambria Math;font-size:1.00001em}
		.st3 {stroke:#000000;stroke-linecap:round;stroke-linejoin:round;stroke-width:3}
		.st4 {fill:none;fill-rule:evenodd;font-size:12px;overflow:visible;stroke-linecap:square;stroke-miterlimit:3}
	]]>
	</style>

	<g>
		<title>Page-1</title>
		<g id="group38-1" transform="translate(7.08661,-6.13712)">
			<title>Sheet.38</title>
			<g id="shape1-2" transform="translate(3.19744E-014,-127.559)">
				<title>Circle</title>
				<desc>3</desc>
				<path d="M0 147.98 A7.08661 7.08661 0 1 1 14.17 147.98 A7.08661 7.08661 0 0 1 0 147.98 Z" class="st1"/>
				<text x="-2.2" y="144.5" class="st2">3</text>			</g>
			<g id="shape2-5" transform="translate(127.559,-127.559)">
				<title>Circle.2</title>
				<desc>2</desc>
				<path d="M0 147.98 A7.08661 7.08661 0 0 1 14.17 147.98 A7.08661 7.08661 0 1 1 0 147.98 Z" class="st1"/>
				<text x="12.35" y="144.5" class="st2">2</text>			</g>
			<g id="shape3-8">
				<title>Circle.3</title>
				<desc>0</desc>
				<path d="M0 147.98 A7.08661 7.08661 0 0 1 14.17 147.98 A7.08661 7.08661 0 1 1 0 147.98 Z" class="st1"/>
				<text x="-3.09" y="157.61" class="st2">0</text>			</g>
			<g id="shape4-11" transform="translate(127.559,2.84217E-014)">
				<title>Circle.4</title>
				<desc>1</desc>
				<path d="M0 147.98 A7.08661 7.08661 0 0 1 14.17 147.98 A7.08661 7.08661 0 1 1 0 147.98 Z" class="st1"/>
				<text x="12.63" y="157.61" class="st2">1</text>			</g>
			<g id="shape7-14" transform="translate(14.1732,-134.646)">
				<title>Sheet.7</title>
				<path d="M0 155.07 L113.39 155.07" class="st3"/>
			</g>
			<g id="shape10-17" transform="translate(162.156,27.5103) rotate(90)">
				<title>Sheet.10</title>
				<path d="M0 155.07 L113.39 155.07" class="st3"/>
			</g>
			<g id="shape11-20" transform="translate(14.1732,-7.08661)">
				<title>Sheet.11</title>
				<path d="M0 155.07 L113.39 155.07" class="st3"/>
			</g>
			<g id="shape12-23" transform="translate(289.715,27.5103) rotate(90)">
				<title>Sheet.12</title>
				<path d="M0 155.07 L113.39 155.07" class="st3"/>
			</g>
		</g>
	</g>
</svg>
