<?xml version="1.0" encoding="UTF-8" standalone="no"?>
<!DOCTYPE svg PUBLIC "-//W3C//DTD SVG 1.1//EN" "http://www.w3.org/Graphics/SVG/1.1/DTD/svg11.dtd">
<!-- Generated by Microsoft Visio, SVG Export figure-2.svg Page-1 -->
<svg xmlns="http://www.w3.org/2000/svg" xmlns:xlink="http://www.w3.org/1999/xlink" xmlns:ev="http://www.w3.org/2001/xml-events"
		width="3.22982in" height="3.11339in" viewBox="0 0 232.547 224.164" xml:space="preserve" color-interpolation-filters="sRGB"
		class="st5">
	<style type="text/css">
	<![CDATA[
		.st1 {fill:#000000;stroke:#feffff;stroke-width:6}
		.st2 {fill:#000000;font-family:Cambria Math;font-size:1.00001em}
		.st3 {stroke:#000000;stroke-dasharray:3,6;stroke-linecap:round;stroke-linejoin:round;stroke-width:3}
		.st4 {stroke:#000000;stroke-linecap:round;stroke-linejoin:round;stroke-width:3}
		.st5 {fill:none;fill-rule:evenodd;font-size:12px;overflow:visible;stroke-linecap:square;stroke-miterlimit:3}
	]]>
	</style>

	<g>
		<title>Page-1</title>
		<g id="group66-1" transform="translate(13.8543,-9.59609)">
			<title>Sheet.66</title>
			<g id="shape57-2" transform="translate(63.2261,-63.7795)">
				<title>Circle.57</title>
				<desc>010</desc>
				<path d="M0 217.08 A7.08661 7.08661 0 0 1 14.17 217.08 A7.08661 7.08661 0 1 1 0 217.08 Z" class="st1"/>
				<text x="3.8" y="230.15" class="st2">010</text>			</g>
			<g id="shape42-5">
				<title>Circle.3</title>
				<desc>000</desc>
				<path d="M0 217.08 A7.08661 7.08661 0 0 1 14.17 217.08 A7.08661 7.08661 0 1 1 0 217.08 Z" class="st1"/>
				<text x="-3.02" y="230.16" class="st2">000</text>			</g>
			<g id="shape43-8" transform="translate(127.559,5.68434E-014)">
				<title>Circle.4</title>
				<desc>100</desc>
				<path d="M0 217.08 A7.08661 7.08661 0 0 1 14.17 217.08 A7.08661 7.08661 0 1 1 0 217.08 Z" class="st1"/>
				<text x="-2.99" y="230.16" class="st2">100</text>			</g>
			<g id="shape61-11" transform="translate(190.785,-63.7795)">
				<title>Circle.61</title>
				<desc>110</desc>
				<path d="M0 217.08 A7.08661 7.08661 0 0 1 14.17 217.08 A7.08661 7.08661 0 1 1 0 217.08 Z" class="st1"/>
				<text x="3.8" y="230.15" class="st2">110</text>			</g>
			<g id="shape58-14" transform="translate(190.785,-190.785)">
				<title>Circle.58</title>
				<desc>111</desc>
				<path d="M0 217.08 A7.08661 7.08661 0 0 1 14.17 217.08 A7.08661 7.08661 0 1 1 0 217.08 Z" class="st1"/>
				<text x="-3.18" y="211.18" class="st2">111</text>			</g>
			<g id="shape41-17" transform="translate(127.559,-127.559)">
				<title>Circle.41</title>
				<desc>101</desc>
				<path d="M0 217.08 A7.08661 7.08661 0 0 1 14.17 217.08 A7.08661 7.08661 0 1 1 0 217.08 Z" class="st1"/>
				<text x="-9.4" y="211.38" class="st2">101</text>			</g>
			<g id="shape40-20" transform="translate(4.79616E-014,-127.559)">
				<title>Circle</title>
				<desc>001</desc>
				<path d="M0 217.08 A7.08661 7.08661 0 1 1 14.17 217.08 A7.08661 7.08661 0 0 1 0 217.08 Z" class="st1"/>
				<text x="-9.59" y="211.38" class="st2">001</text>			</g>
			<g id="shape56-23" transform="translate(63.2261,-190.785)">
				<title>Circle.2</title>
				<desc>011</desc>
				<path d="M0 217.08 A7.08661 7.08661 0 0 1 14.17 217.08 A7.08661 7.08661 0 1 1 0 217.08 Z" class="st1"/>
				<text x="-3.18" y="211.18" class="st2">011</text>			</g>
			<g id="shape55-26" transform="translate(-153.851,146.211) rotate(-90)">
				<title>Sheet.55</title>
				<path d="M0 224.16 L112.83 224.16" class="st3"/>
			</g>
			<g id="shape52-29" transform="translate(-147.228,54.3801) rotate(-45.2965)">
				<title>Sheet.52</title>
				<path d="M0 224.16 L75.63 224.16" class="st3"/>
			</g>
			<g id="shape63-32" transform="translate(77.3993,-70.8661)">
				<title>Sheet.63</title>
				<path d="M0 224.16 L113.39 224.16" class="st3"/>
			</g>
			<g id="shape44-35" transform="translate(14.1732,-134.646)">
				<title>Sheet.44</title>
				<path d="M0 224.16 L113.39 224.16" class="st4"/>
			</g>
			<g id="shape54-38" transform="translate(-146.41,-74.0013) rotate(-45)">
				<title>Sheet.54</title>
				<path d="M0 224.16 L75.24 224.16" class="st4"/>
			</g>
			<g id="shape59-41" transform="translate(-18.8504,-74.0013) rotate(-45)">
				<title>Sheet.59</title>
				<path d="M0 224.16 L75.24 224.16" class="st4"/>
			</g>
			<g id="shape53-44" transform="translate(77.3993,-197.872)">
				<title>Sheet.53</title>
				<path d="M0 224.16 L113.39 224.16" class="st4"/>
			</g>
			<g id="shape62-47" transform="translate(-26.2921,146.211) rotate(-90)">
				<title>Sheet.62</title>
				<path d="M0 224.16 L112.83 224.16" class="st4"/>
			</g>
			<g id="shape47-50" transform="translate(358.81,96.6048) rotate(90)">
				<title>Sheet.47</title>
				<path d="M0 224.16 L113.39 224.16" class="st4"/>
			</g>
			<g id="shape60-53" transform="translate(-19.6685,54.3801) rotate(-45.2965)">
				<title>Sheet.60</title>
				<path d="M0 224.16 L75.63 224.16" class="st4"/>
			</g>
			<g id="shape46-56" transform="translate(14.1732,-7.08661)">
				<title>Sheet.46</title>
				<path d="M0 224.16 L113.39 224.16" class="st4"/>
			</g>
			<g id="shape45-59" transform="translate(231.25,96.6048) rotate(90)">
				<title>Sheet.45</title>
				<path d="M0 224.16 L113.39 224.16" class="st4"/>
			</g>
		</g>
	</g>
</svg>
