<?xml version="1.0" encoding="UTF-8" standalone="no"?>
<!DOCTYPE svg PUBLIC "-//W3C//DTD SVG 1.1//EN" "http://www.w3.org/Graphics/SVG/1.1/DTD/svg11.dtd">
<!-- Generated by Microsoft Visio, SVG Export figure-2-2.svg Page-1 -->
<svg xmlns="http://www.w3.org/2000/svg" xmlns:xlink="http://www.w3.org/1999/xlink" xmlns:ev="http://www.w3.org/2001/xml-events"
		width="2.47122in" height="0.42054in" viewBox="0 0 177.928 30.2789" xml:space="preserve" color-interpolation-filters="sRGB"
		class="st4">
	<style type="text/css">
	<![CDATA[
		.st1 {fill:#000000;stroke:#feffff;stroke-width:6}
		.st2 {fill:#000000;font-family:Cambria Math;font-size:1.00001em}
		.st3 {stroke:#000000;stroke-linecap:round;stroke-linejoin:round;stroke-width:3}
		.st4 {fill:none;fill-rule:evenodd;font-size:12px;overflow:visible;stroke-linecap:square;stroke-miterlimit:3}
	]]>
	</style>

	<g>
		<title>Page-1</title>
		<g id="group300-1" transform="translate(6,-10.1056)">
			<title>Sheet.300</title>
			<g id="shape287-2" transform="translate(151.755,-6.39488E-014)">
				<title>Circle</title>
				<desc>3</desc>
				<path d="M0 23.19 A7.08661 7.08661 0 1 1 14.17 23.19 A7.08661 7.08661 0 0 1 0 23.19 Z" class="st1"/>
				<text x="4.25" y="36.78" class="st2">3</text>			</g>
			<g id="shape288-5" transform="translate(101.17,-3.19744E-014)">
				<title>Circle.2</title>
				<desc>2</desc>
				<path d="M0 23.19 A7.08661 7.08661 0 0 1 14.17 23.19 A7.08661 7.08661 0 1 1 0 23.19 Z" class="st1"/>
				<text x="3.81" y="36.78" class="st2">2</text>			</g>
			<g id="shape289-8">
				<title>Circle.3</title>
				<desc>0</desc>
				<path d="M0 23.19 A7.08661 7.08661 0 0 1 14.17 23.19 A7.08661 7.08661 0 1 1 0 23.19 Z" class="st1"/>
				<text x="3.47" y="36.78" class="st2">0</text>			</g>
			<g id="shape290-11" transform="translate(50.5849,-4.9738E-014)">
				<title>Circle.4</title>
				<desc>1</desc>
				<path d="M0 23.19 A7.08661 7.08661 0 0 1 14.17 23.19 A7.08661 7.08661 0 1 1 0 23.19 Z" class="st1"/>
				<text x="3.91" y="36.78" class="st2">1</text>			</g>
			<g id="shape291-14" transform="translate(151.755,53.4711) rotate(180)">
				<title>Sheet.291</title>
				<path d="M0 30.28 L36.41 30.28" class="st3"/>
			</g>
			<g id="shape293-17" transform="translate(14.1732,-7.08661)">
				<title>Sheet.293</title>
				<path d="M0 30.28 L36.41 30.28" class="st3"/>
			</g>
			<g id="shape294-20" transform="translate(101.17,53.4711) rotate(180)">
				<title>Sheet.294</title>
				<path d="M0 30.28 L36.41 30.28" class="st3"/>
			</g>
		</g>
	</g>
</svg>
