<?xml version="1.0" encoding="UTF-8" standalone="no"?>
<!DOCTYPE svg PUBLIC "-//W3C//DTD SVG 1.1//EN" "http://www.w3.org/Graphics/SVG/1.1/DTD/svg11.dtd">
<!-- Generated by Microsoft Visio, SVG Export figure-4-1.svg Page-1 -->
<svg xmlns="http://www.w3.org/2000/svg" xmlns:xlink="http://www.w3.org/1999/xlink" xmlns:ev="http://www.w3.org/2001/xml-events"
		width="4.10856in" height="1.98595in" viewBox="0 0 295.816 142.988" xml:space="preserve" color-interpolation-filters="sRGB"
		class="st8">
	<style type="text/css">
	<![CDATA[
		.st1 {fill:#000000;stroke:#ffffff;stroke-linecap:round;stroke-linejoin:round;stroke-width:6}
		.st2 {fill:#000000;font-family:Cambria Math;font-size:1.00001em}
		.st3 {stroke:#000000;stroke-linecap:round;stroke-linejoin:round;stroke-width:3}
		.st4 {fill:#000000;font-family:Cambria Math;font-size:0.833336em}
		.st5 {fill:#000000;stroke:#000000;stroke-linecap:round;stroke-linejoin:round;stroke-width:0.24}
		.st6 {fill:#000000;font-family:Calibri;font-size:0.833336em}
		.st7 {fill:#ffffff;stroke:#000000;stroke-linecap:round;stroke-linejoin:round;stroke-width:1}
		.st8 {fill:none;fill-rule:evenodd;font-size:12px;overflow:visible;stroke-linecap:square;stroke-miterlimit:3}
	]]>
	</style>

	<g>
		<title>Page-1</title>
		<g id="group619-1" transform="translate(9.53031,-10.136)">
			<title>Sheet.619</title>
			<g id="group540-2">
				<title>Sheet.540</title>
				<g id="shape541-3" transform="translate(1.22902E-013,-111.359)">
					<title>Circle</title>
					<desc>3</desc>
					<path d="M0 136.8 A6.18661 6.18661 0 1 1 12.37 136.8 A6.18661 6.18661 0 0 1 0 136.8 Z" class="st1"/>
					<text x="2.92" y="132.3" class="st2">3</text>				</g>
				<g id="shape542-6" transform="translate(111.359,-111.359)">
					<title>Circle.2</title>
					<desc>2</desc>
					<path d="M0 136.8 A6.18661 6.18661 0 1 1 12.37 136.8 A6.18661 6.18661 0 0 1 0 136.8 Z" class="st1"/>
					<text x="2.96" y="132.3" class="st2">2</text>				</g>
				<g id="shape543-9">
					<title>Circle.3</title>
					<desc>0</desc>
					<path d="M0 136.8 A6.18661 6.18661 0 1 1 12.37 136.8 A6.18661 6.18661 0 0 1 0 136.8 Z" class="st1"/>
					<text x="2.35" y="149.52" class="st2">0</text>				</g>
				<g id="shape544-12" transform="translate(111.359,0)">
					<title>Circle.4</title>
					<desc>1</desc>
					<path d="M0 136.8 A6.18661 6.18661 0 1 1 12.37 136.8 A6.18661 6.18661 0 0 1 0 136.8 Z" class="st1"/>
					<text x="2.96" y="149.52" class="st2">1</text>				</g>
				<g id="shape545-15" transform="translate(12.3732,-117.546)">
					<title>Sheet.545</title>
					<path d="M0 142.99 L98.99 142.99" class="st3"/>
				</g>
				<g id="shape546-18" transform="translate(-136.802,130.615) rotate(-90)">
					<title>Sheet.546</title>
					<path d="M0 142.99 L98.99 142.99" class="st3"/>
				</g>
				<g id="shape547-21" transform="translate(12.3732,-6.18661)">
					<title>Sheet.547</title>
					<path d="M0 142.99 L98.99 142.99" class="st3"/>
				</g>
				<g id="shape548-24" transform="translate(-25.4428,130.615) rotate(-90)">
					<title>Sheet.548</title>
					<path d="M0 142.99 L98.99 142.99" class="st3"/>
				</g>
			</g>
			<g id="group573-27" transform="translate(157.309,8.52651E-014)">
				<title>Sheet.573</title>
				<g id="shape574-28" transform="translate(1.22902E-013,-111.359)">
					<title>Circle</title>
					<desc>0</desc>
					<path d="M0 136.8 A6.18661 6.18661 0 1 1 12.37 136.8 A6.18661 6.18661 0 0 1 0 136.8 Z" class="st1"/>
					<text x="2.92" y="132.3" class="st2">0</text>				</g>
				<g id="shape575-31" transform="translate(111.359,-111.359)">
					<title>Circle.2</title>
					<desc>3</desc>
					<path d="M0 136.8 A6.18661 6.18661 0 1 1 12.37 136.8 A6.18661 6.18661 0 0 1 0 136.8 Z" class="st1"/>
					<text x="3.51" y="131.7" class="st4">3</text>				</g>
				<g id="shape576-34">
					<title>Circle.3</title>
					<desc>1</desc>
					<path d="M0 136.8 A6.18661 6.18661 0 1 1 12.37 136.8 A6.18661 6.18661 0 0 1 0 136.8 Z" class="st1"/>
					<text x="2.35" y="149.52" class="st2">1</text>				</g>
				<g id="shape577-37" transform="translate(111.359,0)">
					<title>Circle.4</title>
					<desc>2</desc>
					<path d="M0 136.8 A6.18661 6.18661 0 1 1 12.37 136.8 A6.18661 6.18661 0 0 1 0 136.8 Z" class="st1"/>
					<text x="2.96" y="149.52" class="st2">2</text>				</g>
				<g id="shape578-40" transform="translate(12.3732,-117.546)">
					<title>Sheet.578</title>
					<path d="M0 142.99 L98.99 142.99" class="st3"/>
				</g>
				<g id="shape579-43" transform="translate(-136.802,130.615) rotate(-90)">
					<title>Sheet.579</title>
					<path d="M0 142.99 L98.99 142.99" class="st3"/>
				</g>
				<g id="shape580-46" transform="translate(12.3732,-6.18661)">
					<title>Sheet.580</title>
					<path d="M0 142.99 L98.99 142.99" class="st3"/>
				</g>
				<g id="shape581-49" transform="translate(-25.4428,130.615) rotate(-90)">
					<title>Sheet.581</title>
					<path d="M0 142.99 L98.99 142.99" class="st3"/>
				</g>
			</g>
			<g id="shape586-52" transform="translate(30.0574,-30.0574)">
				<title>Circular Arrow</title>
				<desc>90°</desc>
				<path d="M55.99 102.67 L58.83 94.4 L54.99 96.78 A27.2876 27.2876 -180 1 0 53.15 128.18 L50.56 126.12 A23.9783 23.9783
							 0 1 1 52.18 98.53 L48.34 100.92 L55.99 102.67 Z" class="st5"/>
				<text x="26.17" y="114.96" class="st6">90°</text>			</g>
			<g id="shape616-55" transform="translate(153.853,224.104) rotate(180)">
				<title>Simple Arrow</title>
				<path d="M0 142.99 L11.34 128.82 L11.34 135.9 L23.87 135.9 L23.87 142.99 L23.87 150.08 L11.34 150.08 L11.34 157.16
							 L0 142.99 Z" class="st7"/>
			</g>
		</g>
	</g>
</svg>
